<?xml version="1.0" encoding="UTF-8" standalone="no"?>
<!-- Generator: Adobe Illustrator 16.0.0, SVG Export Plug-In . SVG Version: 6.00 Build 0)  -->

<svg
   xmlns:dc="http://purl.org/dc/elements/1.1/"
   xmlns:cc="http://creativecommons.org/ns#"
   xmlns:rdf="http://www.w3.org/1999/02/22-rdf-syntax-ns#"
   xmlns:svg="http://www.w3.org/2000/svg"
   xmlns="http://www.w3.org/2000/svg"
   xmlns:xlink="http://www.w3.org/1999/xlink"
   xmlns:sodipodi="http://sodipodi.sourceforge.net/DTD/sodipodi-0.dtd"
   xmlns:inkscape="http://www.inkscape.org/namespaces/inkscape"
   version="1.1"
   id="svg2"
   x="0px"
   y="0px"
   width="1300px"
   height="1252.215px"
   viewBox="0 0 1300 1252.215"
   enable-background="new 0 0 1300 1252.215"
   xml:space="preserve"
   inkscape:version="0.48.4 r9939"
   sodipodi:docname="Namibia_-_Kavango-East.svg"><metadata
   id="metadata118"><rdf:RDF><cc:Work
       rdf:about=""><dc:format>image/svg+xml</dc:format><dc:type
         rdf:resource="http://purl.org/dc/dcmitype/StillImage" /><dc:title></dc:title></cc:Work></rdf:RDF></metadata><defs
   id="defs116" /><sodipodi:namedview
   pagecolor="#ffffff"
   bordercolor="#666666"
   borderopacity="1"
   objecttolerance="10"
   gridtolerance="10"
   guidetolerance="10"
   inkscape:pageopacity="0"
   inkscape:pageshadow="2"
   inkscape:window-width="1280"
   inkscape:window-height="962"
   id="namedview114"
   showgrid="false"
   inkscape:zoom="0.56318954"
   inkscape:cx="344.5966"
   inkscape:cy="626.10748"
   inkscape:window-x="-8"
   inkscape:window-y="-8"
   inkscape:window-maximized="1"
   inkscape:current-layer="svg2" />
<g
   id="Sea">
	<g
   id="g4">
		<defs
   id="defs6">
			<rect
   id="SVGID_1_"
   x="0"
   width="1300"
   height="1252.215" />
		</defs>
		<clipPath
   id="SVGID_2_">
			<use
   xlink:href="#SVGID_1_"
   overflow="visible"
   id="use10" />
		</clipPath>
		<g
   id="layer0"
   clip-path="url(#SVGID_2_)">
			<rect
   id="ocean"
   x="0"
   fill="#C8EBFF"
   width="1300"
   height="1252.215" />
		</g>
	</g>
</g>
<path
   id="Coatlinbe"
   fill="#E0E0E0"
   d="M71.095,0.318L71.5,17.5l0.8,9l-0.5,2.4l-0.2,7.5L70.7,39.9L67.9,39.3l0.7,8.2l-0.1,2.8  l-1.8,9.8L66.6,72.6L66,76.2L65.9,77.5l0.2,1.2l0.5,0.9l0.7,0.6l1.724,1.292c223.415,330.467,339.334,692.956,408.273,1075.706  l1.103,1.203l1.102-1l0.8-1.5l1.7-1.103l0.1,0.9l-0.2,1.5l-0.5,1.399l-0.898,0.601l0.1,0.6l2.3,2.201l1.4,1.1l1.898,4l0.5,0.199  l0.8,0.103l0.802,0.198l0.3,0.5l0.2,0.699l0.698,1.601l0.4,0.602l-0.3,2l0.5,3.398l0.898,3.301l0.9,2.1l5.9,4.801l4,5.302  l0.698,1.299l1.302,3.6l0.8,1.201l5.6,4.699l1.4,2.198l-0.4,1.5l0.3,2.201l0.7,2.199l0.8,1.5l0.302,0.9v2.199l0.3,0.801l1,0.899  l0.5,0.8l1.8,5.801l1.6,1.801l0.302,0.4l0.3,1l1.7,1.698l0.398,0.601l3.3,9.399l0.602,1.101l2.6,6.801l0.4,3.5l0.6,2.1  l777.238,4.535L1301.52-7.317L71.095,0.318z" />
<g
   id="layercountry_1_">
	<path
   id="_x31_0m-admin-1-states-provinces-shp.3625_1_"
   fill="#FEFEEA"
   d="M783.698,874.1l1.2,1l4-0.5L789,1137.7l-0.102,2.801   l-2.7,0.699h-1l-2.8-0.301l-1,0.102l-2.3,1.199l-3.9,3.5l-2.6,0.699l-4.2,0.2l-2,0.699l-1.8,1.301l-1.5,0.8l-8.8,0.602   l-0.801,0.199l-0.899,0.6l-0.5,0.701l-0.601,0.699l-0.699,1l-0.5,0.699l-0.801,1.801L749,1156l-0.9,0.299l-0.5,0.9l-2.5,7.6   l-0.9,1.301l-1.6,1.199l-1.8,0.801l-7.102,1.8l-1.3,0.5l-0.898-0.199l-2.102-1.601l-1.3,0.101l-1.101,0.899l-1,1.3l-1.5,2.7   l-0.301,2l0.5,2.101l3.301,5.399v1.101l-1,0.6l-2.899,0.201l-0.601,0.398l-0.899,1.5l-0.8,0.7l-5,2.5l-3.602,1.199l-3.398,0.101   l-1.5-1.8l-0.4-0.399l-0.898-0.301l-3.102-0.4l-0.6-0.199l-1-1l-2.2-3.301l-1.4-1.398l-18.398-2.5l-16.8,2.398l-3.2,1.602   l-1.9,0.601L658,1184.5l-1.101-0.898l-0.399-0.301l-0.399,0.101l-0.8,0.5l-0.5,0.1l-1.7,0.301l-1,0.301l-0.7,0.398l-1.7,0.701   l-2.1-0.301l-3.7-1.4l-2-0.1l-7.7,1.1l-3.1,1H629.5l-7.399-2.5l-3.4-1.6l-5.3-4.3l-3-1.801l-3.2-1.301l-14.7-3.101l-2.8,0.302   l-0.898,0.399l-1.802,1.101l-0.8,0.399l-1.2,0.101l-2.8-0.802l-1.898-0.799l-0.4-1.899l0.1-2.302l-0.5-2l-1.3-0.899l-1.5,0.301   l-1.7,0.699l-1.8,0.399l-3.6,0.4l-3.9,0.9l-3.3-0.5l-0.1-2.801l1.1-3.9l0.5-3.799l-0.9-2.103l-3.3-1.1l-0.6-1.601l-0.602-2.198   l-2.3-2.9l-0.7-1.699l0.302-1.399l1.198-1.301l1.5-0.9l1.5-0.4l1.4-0.897l0.7-2.302l0.2-2.6l-0.2-2l-0.4-1.1l-1.398-1.801   l-0.602-0.9l-0.398-1.199l-0.102-1l-0.2-0.9l-0.8-1.198l-0.398-0.9l-0.102-1.201l-0.3-1.1l-1-0.4l-2.3,0.103l-5.601,1.199   l-2.801-0.5l-1.898-2.199l-0.4-4.4l0.3-2.1v-2.201l-0.8-1.6l-2.2-0.699l-1.7-0.701l-1.198-1.799l-1-1.9l-1.2-1.4l-1-0.399h-0.9   l-1.7,0.399l-1,0.5l-3,2.101l-2.3-0.601l-1,0.302l-1.3,1.198l-1,0.4l-0.9-0.1l-0.898-1.101l-0.7-0.102l-0.5,0.399l-1.5,1.601   l-0.3,0.301l-0.7,7.5l-0.6,1l-0.4-0.1l-0.5-0.302h-1.4l-0.398-0.299l-0.4-0.102l-0.5,0.4l-0.2,0.6l0.301,0.5l1.5,1.801l0.101,0.699   l-1.4,0.301h-1.8l-0.5,0.4l-0.399,0.899l0.301,0.601l0.6,1l0.601,1.1l-0.199,1.199l-0.801,0.602l-0.899-0.301l-0.899-0.6   l-0.801-0.301l-1.5,0.698l-0.399,1.701l0.301,1.9l0.699,1.5l1.801,2.698l0.699,1.802l-1,0.698l-1.3,0.9l-0.399,1.9l-0.101,2.1   l-0.301,1.6l-0.899,1.601l-1.601,2.1l-1.8,1.4l-1.399-0.199l-0.399-0.801l-0.301-1.199l-0.3-1.1l-0.801-0.5l-0.898,0.299   l-6.7,6.399l-3.3,1l-2.5,1.199l-2.301,1.5l-1.5,0.701l-1.699,1.199l-0.801,1.4l-1.101,1l-2.399-0.4l-1-0.6l-5.301-4.199l-2.8-3   l-1.3-1.9l-9.399-9.1l-1.601-0.603l-0.7-0.6l-5.3-6.9l-5.601-6.299l-11.601-8.1l-2.399-2.302l-4.5-5.5l-6.301-4.801l-1.199-1.299   l-2.699-4.201l-2.801-2.897l-0.5-0.701l-0.101-1.101l0.601-1.899l0.101-0.9l-1.101-3l-2.399-3.198l-8.8-8.4l-1.102-1.699   l-0.398-2.201v-5l-0.2-0.699l-0.5-1.198l-8.399-13l-1.399-3.101l-1.101-1.5l-1.399-0.602l-0.801-0.799l-2.601-5l-3.6-4.5l-0.5-1   l-1.2-7.5l-0.5-1l-0.601-0.701l-0.5-0.699l-0.199-1.199l0.6-3.899l-1.2-6.101l0.602-1.399l-1.801-3.5l-0.5-1.802l-0.199-2.198   l0.1-3.9l-0.5-1.899l-1.399-1.699l-0.601-0.201l-1.6-0.1l-0.801-0.3l-0.101-0.399l-0.6-1l-0.7-0.9h-0.3l-0.301-2.1l-0.601-1.701   l-2.8-5.799l-0.4-1.601l0.4-2.5l-1-1.899l-1.2-1.9l-0.8-1.6l-0.101-2.201l0.199-1.898l0.7-1.399l1.3-0.5l0.9-0.201l0.899-0.299   h0.699l0.2,0.899v3.601h0.601l0.399-1.802l1.7-5l0.1-1l-0.6-1.299l-1.8-5.801l-1.102-5.699l-2.1-3.5l-2.9-2.899l-3.3-2.201   l-5.2-2.101l-0.8-0.899l-0.7-7.398l0.4-7.2l-1.8-2.601l-0.301-0.6l0.399-1.201h0.5l0.7,0.301l0.8-0.399l1.2-3.101l-0.101-4   l-0.899-4.1l-1.4-3.101l-4-6.399l-0.398-3.101l1.398-3.5h-0.699l-4.5-5.301l-1.5-2.5l-0.199-1.1v-0.801l0.199-1.4v-7.5l0.399-1.898   l2.601-4.899l0.301-1.601v-2.2l-0.4-1.9l-1.899-1.799l-0.601-2.5l-0.399-4.302l-2.101-5.698l-0.5-4.5l-0.899-3.5l-0.101-1.9   l2.7-7.1l-0.2-1.101l1.7-6.801l0.399-3.9l-0.899-3.6l-1.2-2.5h0.2l81.399,0.6l2.101,7.701l7,46.799l0.3,0.9l0.4,0.801h0.8l1-0.2   l3.3-1l1.101-0.199h1.199l0.9,0.6l0.899,1l17.801,23.699l1.1,0.9h1.2l1.1-0.5l1.2-0.601l1.7-0.199l2.2,0.101l3.898,1.299l1.4-0.1   l0.5-0.601l-4.601-23.6l-0.101-0.9l0.101-0.899l0.801-0.5l0.898-0.4l4.4-1.299l1.1-0.101l1,0.398l1,0.602l0.801,0.601l0.601,0.699   l0.1,0.399l-0.398,0.699l-0.4,0.602v0.898l1.4,4.5l3.699-2.6l1.399-2l3.3-7.101l1-1.6l0.801,0.199l0.699,0.899l2.2,3.9l0.7,1   l0.7,0.399h1.1l1.5-0.102l15.5,3l0.7,0.5l1.5,0.701l2.2,1.5l3.7,0.5l4,1.299l2.398,1.5l0.9,0.9l0.3,1.1l0.1,1.201l0.302,1.1   l0.5,0.5l1.698-0.199l6.5-1.899h2.7l4.602-1.701l1.398,0.201l14.5,6.1l0.3-16.5l2-1.301l2.5-1l1.602-0.799l0.6-0.301l0.601,0.1   l0.899,0.5l1.2,0.4l16.8,1.7l11.601-1l42.399-9.899l19.7-1.701l5.9,3.102l2,1.601l6.698,3.299l38.302,3.301l1.398-0.399l7.9-4.101   l1.898-1.801l0.7-0.601l0.8-0.399l0.802,0.5l0.5,0.5l7.8,11.5l0.8,0.899l0.7,0.302l1.1-0.601l2.7-2l0.7-0.399l2.3-0.4h4.2   l4.898,0.699l2.2,0.801l2.102,1.601l1.3,0.6l1.398,0.4l8.4,1.6l3.8,1.701l1.102,0.1l1.8-0.6l9.8-4.601l1.3-0.301L783.698,874.1   L783.698,874.1z" />
	<path
   id="_x31_0m-admin-1-states-provinces-shp.3626_1_"
   fill="#FEFEEA"
   d="M726.9,707.1l6,0.802l55.9,0.198l0.1,84.302v1.1v81.1   l-4,0.5l-1.2-1l-1.8,0.199l-1.3,0.301l-9.8,4.601l-1.8,0.6l-1.102-0.1L764.1,878l-8.4-1.602L754.3,876l-1.3-0.602l-2.102-1.601   l-2.2-0.799l-4.898-0.701h-4.2l-2.3,0.4l-0.7,0.399l-2.7,2l-1.1,0.601l-0.7-0.299l-0.8-0.9l-7.8-11.5l-0.5-0.5l-0.802-0.5l-0.8,0.4   l-0.7,0.6l-1.898,1.799l-7.9,4.101l-1.399,0.399L671.198,866l-6.698-3.3l-2-1.601l-5.9-3.1l-19.7,1.699l-42.4,9.899l-11.6,1   l-16.8-1.698l-1.2-0.4l-0.9-0.5l-0.6-0.1l-0.6,0.299L561.198,869l-2.5,1l-2,1.299l-0.3,16.5l-14.5-6.1L540.5,881.5l-4.601,1.7h-2.7   l-6.5,1.899L525,885.299l-0.5-0.5l-0.302-1.1l-0.1-1.199l-0.3-1.1l-0.9-0.9L520.5,879l-4-1.301l-3.7-0.5l-2.2-1.5L509.1,875   l-0.7-0.5l-15.5-3l-1.5,0.1h-1.1l-0.7-0.399l-0.7-1l-2.2-3.9l-0.7-0.897l-0.8-0.201l-1,1.6l-3.3,7.101l-1.4,2L475.8,878.5l-1.4-4.5   v-0.9l0.4-0.6l0.398-0.701l-0.1-0.399l-0.602-0.699l-0.8-0.601l-1-0.6l-1-0.4l-1.1,0.101l-4.4,1.301l-0.898,0.398l-0.802,0.5   l-0.1,0.899l0.1,0.9l4.602,23.6l-0.5,0.601l-1.4,0.102L463.3,896.2l-2.2-0.101l-1.7,0.199l-1.2,0.601l-1.1,0.5h-1.2l-1.1-0.898   L436.998,872.8l-0.898-1l-0.9-0.6h-1.2l-1.1,0.199l-3.3,1l-1,0.2h-0.8l-0.4-0.801l-0.3-0.899l-7-46.8l-2.102-7.7l-81.398-0.601   h-0.2l-1.8-3.6l-1.2-3.802l-0.2-7.6l-1.1-3.6l-5-9.5l-2.102-2.9L320.6,780.6l-1.2-2.801l-3-3.5l-0.5-2.399l0.3-1l1.2-1.398l0.3-0.5   v-3.9l-0.398-1.801l-2-3.6l-1.9-4.802l-4.7-9.1l-1.898-6.6l-1.7-3.101l-0.602-4.399l-0.6-1.4l0.4-1.9V725.2L303.9,722l-0.7-2.102   l0.7-1.3l0.5-2.6l0.7-1.301l0.5-0.299l0.8-0.103l0.7-0.299l0.398-0.9l1.2-2.301l-0.7-1.199l0.102-5.301l-1.602-4.6l-0.198-1.601   l1.198-13.698l-0.5-3.4l-1-2.6l49.4,4.799l2.2,3.301l0.7,0.699l0.3,0.301l0.398,0.299l0.7,0.201l1,0.199l2,0.201l6.4-0.603l8.8,1.5   l1.9-0.199l1.198,0.101l10.102,2.701l25.5,11.397l-0.7,7.4l0.4,2.399l1,2.601l5.3,2.701l2.5,0.198l6.5-0.301l0.8-0.299l0.5-0.5   l0.4-0.801l0.398-0.9l0.7-0.799l1.1-0.601l4.102-0.102l11.3-3.5l0.6-0.1l2.7,0.301h1l1-0.4l5.4-2.899l0.6-0.199l-0.2,0.699   L461.1,710l-0.4,1.1l-0.199,1.302l0.301,1.799l-0.301,0.701l-0.699,0.5l-1.7,0.198l-0.4,0.101l-0.6,0.399l-0.102,1l0.5,1.5   l4.9,3.699l4.899,1L466.4,721l-1.601-5.801l1-2.5l3.301-3.299l0.8-0.5l0.7-0.103l2.8,0.801l7.899,0.5h0.801l0.398-0.301l0.4-0.6   l0.5-1.101l0.2-0.698l-0.102-0.603l-0.699-2.1l-0.301-0.699l-0.6-0.4l-0.8-0.301l-6.7-1.897h-0.8l-1.5,0.799l-0.801,0.1   l-7.601-1.799l-0.6-0.4l-0.102-0.6l0.102-0.9l1.398-5.399l4.2-8.601l0.601-0.698l0.5-0.4l1.199,0.799l0.801,0.9l0.199,0.5   l0.301,4.701l0.199,0.698l0.7,0.302h5.8l1-0.201l0.801-0.601l9.101-8.899l0.3-0.799V680l-0.7-3l-0.3-0.801l-0.5-0.5l-6-3.299   l-0.399-0.302l-0.399-0.399l0.2-0.699l0.3-0.801l10.1-20l1.301-1.8l1-0.102l2.101,1l1.6,1.4l1.801,0.6l1.699,0.102l2-0.399   l3.301-0.101l3.899,1l7.101-1.7l4.399-1.9l5.2-3.897l5.899-1.103h3.601l3.899,1.301l1.5,0.699l0.801,1.301l0.398,2.5l0.102,4.101   l1.398,2.1l3.102,0.602l7.898-1.301l5.9-0.199l5-1.2l1.4-0.101l0.3,0.101l-3.2,3.1l-0.6,0.801l-0.2,0.802v0.897l0.398,4.9   l-0.1,0.701l-0.5,0.397l-3.2,1l-0.3,0.603v0.897l1.1,5.701l0.302,0.4l0.5,0.299l1.398,0.399l0.7,0.302l0.3,0.397l0.2,0.801l0.7,8.4   l0.5-0.4l14.7,0.199l1-0.1l0.698-0.199l0.302-0.9l0.698-0.899l1.305-0.7l16.698-0.5l4.5,1.299l0.802,0.4l0.698,0.6l3.2,4l0.7,0.5   l0.8,0.201l3.5-1.6l0.8-0.201l0.802,0.6l1.398,0.4l1.4-0.199l1.6-0.4l6.8-3l3.802-0.899l1-0.601l0.198-1l0.2-2l0.2-0.801l0.8-0.699   l7.602-3.5l6-3.5l2-0.1l2.5,3.9l-0.102,1.198L661.8,691l0.5,0.4l0.6-0.4l1.4-1.5l0.898-0.701l0.8-0.299l1.102,0.6l0.898,0.802   l4.302,4.6l1.398,0.799l1.8,0.603l7.102,1.299l1.2-0.101l16.398-6.5l0.8-0.198l4.7,0.299L706.3,691v0.5l-0.4,0.799l-0.1,0.801   l0.3,0.699l1.7,0.301l8.198,0.302l0.4-0.201l0.4-0.4l4-5l1.1-0.6l1.3-0.1l2.102,0.5l0.8,0.698l0.398,1L726.9,707.1L726.9,707.1z" />
	<path
   id="_x31_0m-admin-1-states-provinces-shp.3627_1_"
   fill="#FEFEEA"
   d="M470.698,571.3l4.102-3l3.7-1.6l7-1.7l0.898,0.6   l1.2,0.5l0.5,0.602l0.6-0.4l0.7-0.7l1.3-1.8l0.7-0.7l0.7-0.5l0.8,0.301l1.8,1.301l0.9,0.5l0.899-0.301l0.801-0.399h0.898l2.602,0.3   l2.699-0.2l0.801-0.699l0.398-0.899l-0.3-0.9l-0.399-0.699l-0.801-0.101l-2.898,0.5l-0.8-0.1l-0.4-0.602l-0.1-0.699l0.198-0.601   l0.4-0.6l2.5-4.4l0.7-0.8l0.8-0.4h0.9l0.5,0.2l0.398,0.7l0.7,2l0.8,0.899l1.102,0.699l2.398,0.102l1.102,0.699l1.198,1l0.9-0.101   l4-1.5h1.2l1-0.6l0.8-0.7l1.8-1.8l0.9-0.8l1.1-0.5l0.7,0.398l0.6,0.9l0.602,1l0.5,0.7l0.5,0.1l0.7-0.5l5.8-5l1-0.6l0.8-0.4l0.7,0.6   l0.5,0.9l0.5,1l0.6,0.9l0.601,0.6l1-0.2l8.399-4l1.101-1.1l0.601-1.102v-3l0.1-0.898l0.5-0.9l1.5-1.7l0.7-0.8l0.8-0.6l0.5,0.398   l0.3,0.802l0.5,2l0.302,0.8l0.398,0.398l0.8-0.1l4.2-1.8l0.9-0.601l0.7-0.601l0.1-0.8l-0.2-1.8l0.102-0.5l0.698,0.1l3.5,1.5   l0.802,0.2l0.5-0.601l0.398-0.801l0.9-2.6v-0.601l-0.2-0.801l-1.8-5.1l-0.101-0.9l0.601-0.199h1.8l1-0.101l0.9-0.6l0.8-0.7l0.7-0.7   l0.398-0.6l0.602-1.801l0.8-1l1-0.699l2.899-1.7l0.5-0.4l1-2.699l0.601-1l0.899-0.5l1-0.399l4.101-1.101l0.899-0.199l0.801,0.1   l0.8,0.7l1.399,1.5l0.601,0.2l0.6-0.102l2.602-0.8l4.1-0.899l2.4-1.199l1-0.801l1.898-1.801l3-2.5l4.2-1.898l3.6-0.801l2,0.301   l9.2-2.602l0.7,5.602l-1.1,2.199l-2.2,2.699l-1.4,2.5L620.8,517.4v0.8l0.198,0.399l0.302,0.4l0.3,0.3l1.3,1.301l0.6,0.699l0.7,1.2   l0.3,0.4l0.4,0.199l0.4,0.199l0.3,0.5l0.3,0.801l0.2,2.101l-0.5,0.899l-0.7,0.5l-0.6,0.399l-0.7,0.601l-0.7,1.699l-2.5,3.7   l-0.3,0.8l0.3,0.602l0.5,0.8l0.2,0.8v1.601l-0.4,0.699l-0.898,0.7l-3.102,1.3l-0.8,0.2l-1.4-0.1l-0.8,0.1l-0.7,0.3l-0.398,0.801   l-1,8.399l0.3,1.5l0.5,1.5l2.4,5l2.898,3.8l1,1l1.102,0.2h3.5l0.698,0.5l0.5,0.601l2.4,3.801l1.2,1.3l1.7,1.399l0.698,0.699   L630.1,573.4l-2.9,1.6l-0.7,0.601l0.302,0.699l0.698,0.7l2.2,1.7l0.2,0.1l0.1-0.199l2.7-2.199l0.8-0.5l0.4,0.398l0.3,0.602   l2.4,12.3l1.1,9.899l0.5,1.899l2.5,7.5l0.2,2.7l0.2,10.1l0.6,0.602h0.9l6.2-2.4h0.698l0.2,0.601V621l-0.1,1.8l-0.2,0.9l-0.3,0.5   l-0.7,0.399l-4,1.601l-0.4,0.3l-0.6,0.6l-0.1,0.802l0.1,1l0.4,0.897l0.398,0.801l1.4,0.802l1.9,2.397l0.8,0.302l1,0.198   l1.898,0.302l0.802,0.198l0.5,0.302l0.398,0.698l0.8,2.201l0.7,3.1l-0.5,0.699l-0.8,0.301l-5,0.302l-0.8,0.299l-0.801,0.701   l-0.601,1l-0.3,1.198l-0.1,1.101l0.6,1l12.3,10.201l0.9,0.897v0.9l-0.3,1.1l-5.2,13.103l-2.5-3.9l-2,0.1l-6,3.5l-7.602,3.5   l-0.8,0.699l-0.2,0.801l-0.198,2l-0.2,1l-1,0.601l-3.8,0.899l-6.802,3l-1.6,0.4l-1.4,0.199l-1.398-0.4l-0.8-0.6l-0.802,0.201   l-3.5,1.6l-0.8-0.201l-0.7-0.5l-3.198-4l-0.7-0.6l-0.8-0.4l-4.5-1.299l-16.7,0.5l-1.3,0.699l-0.7,0.899l-0.3,0.9l-0.7,0.199l-1,0.1   l-14.7-0.199l-0.5,0.4l-0.7-8.4l-0.2-0.801l-0.3-0.397l-0.7-0.302l-1.398-0.399l-0.5-0.3l-0.301-0.399l-1.101-5.701v-0.898   l0.3-0.602l3.2-1l0.5-0.398l0.101-0.7l-0.399-4.9v-0.898l0.2-0.801l0.6-0.801l3.2-3.1l-0.3-0.101l-1.4,0.101l-5,1.2L556.5,654.6   l-7.9,1.302l-3.1-0.603l-1.4-2.1l-0.1-4.101l-0.4-2.5l-0.8-1.301l-1.5-0.699l-3.9-1.301h-3.6l-5.9,1.103l-5.2,3.897l-4.398,1.9   l-7.102,1.701l-3.898-1L504,651l-2,0.4l-1.7-0.103l-1.8-0.6l-1.602-1.4l-2.1-1l-1,0.103l-1.301,1.799l-10.101,20L482.1,671   l-0.2,0.699l0.4,0.399l0.398,0.302l6,3.299l0.5,0.5l0.3,0.801l0.7,3v0.9l-0.3,0.799l-9.1,8.899l-0.801,0.601l-1,0.201h-5.801   L472.5,691.1l-0.2-0.698L472,685.7l-0.2-0.5l-0.8-0.9l-1.2-0.799l-0.5,0.4l-0.602,0.698l-4.2,8.601L463.1,698.6l-0.102,0.9   l0.102,0.6l0.6,0.4l7.602,1.799l0.8-0.1l1.5-0.799h0.8l6.7,1.897l0.8,0.301l0.6,0.4l0.302,0.699l0.698,2.1l0.102,0.603l-0.2,0.698   l-0.5,1.101l-0.399,0.6L482.1,710.1h-0.8l-7.9-0.5l-2.8-0.801l-0.7,0.103l-0.8,0.5l-3.3,3.299l-1,2.5l1.6,5.801l0.9,2.299l-4.9-1   l-4.899-3.7l-0.5-1.5l0.1-1l0.6-0.399l0.4-0.101l1.7-0.198l0.7-0.5l0.3-0.701l-0.3-1.799l0.198-1.302l0.4-1.1l0.899-1.801   l0.199-0.699l-0.6,0.199l-5.4,2.899l-1,0.4h-1L451.5,710.7l-0.602,0.1l-11.3,3.5l-4.101,0.103L434.4,715l-0.7,0.799l-0.398,0.9   l-0.4,0.801l-0.5,0.5l-0.8,0.299l-6.5,0.302l-2.5-0.199l-5.3-2.701l-1-2.6l-0.4-2.4l0.7-7.4l7.3-0.799l1.8-1.6l0.5-3.603v-0.6   l-0.898-3.799l-0.2-0.802l1.1-13.6l-0.1-0.9l-0.2-0.698l-0.6-0.603l-6.8-3.1l-0.602-0.4l-0.5-0.6v-0.799l0.3-0.801L420,665l0.5-0.9   l0.5-0.698l0.898-0.302l2.9-0.5l0.8-0.198l0.399-0.201l0.101-0.699v-0.4l-2.2-11.6l7.2-2.301l0.899-0.4l0.5-0.5l-0.301-0.699   l-3.898-4.801l-0.5-0.897l0.1-0.9l0.2-0.9l1.5-4.801l0.2-0.897l0.1-1.103l-0.2-2l-0.398-2l-0.2-0.799l-0.1-0.399v-0.399l1-8.7   l0.6-1.3l0.9-1.3l2.398-1.2l1.4-1l1.5-0.3l1.1-0.2h5.3l0.9-0.3l0.399-0.9l0.101-1.1l0.1-9.801V598.8l-0.3-0.8l-0.6-0.2l-0.801-0.1   l-6.601,0.2l-0.3-0.301l-0.4-0.399l1.602-2.101l6.898-7.199l1.2-0.801h1.3l5.4,1.601h1.1l1.102-0.5l1.3-0.7l2.6-2.3l1.102-1.8   l3.1-2.602l0.9-0.898l1-0.2h1.1l1.3,0.1h1.102l1-0.1l0.3-0.7l0.2-0.399v-4.199l0.5-1.5L470.698,571.3L470.698,571.3z" />
	<path
   id="_x31_0m-admin-1-states-provinces-shp.3634_1_"
   fill="#FEFEEA"
   d="M494.6,289.5l5.3,2.9l1,0.9l0.102,1.5l0.8,4.1l-1,34.8   l0.8,3.5l-4.9,3.4l-2.398,0.7h-7.8l-0.5,0.2l-0.2,0.3l-0.102,5.4l0.102,0.9l1.398,4.1l0.102,0.9l-0.602,0.2l-0.8,0.1l-2.6-0.1   l-15.7,8.2l-0.9,0.8l-0.5,0.7l0.3,7.7l0.5,3.2v1.1l-0.198,1.2l-0.5,1.2l-1,0.9l-1.2,0.7l-1.3,0.6l-1.302,0.3l-1.3-0.1l-1.5-1.3   l-1.398-0.3l-1.3-0.1l-1.102,0.1l-0.8,0.3l-4.3,2.1l-0.9,0.1l-5.398,0.1l-0.9,0.1l-6.2,2.6l-2.898,2l-1.2,1.1l-5.602,6.7   l-1.398,0.9l-5.3,2.3l-1.302,0.4l-1.3-0.1l-7.2-1.6l-6.1-0.3l-3.9-0.8l-3.698-1.4l-1.802-0.9l-1.3-1.1l-0.7-1l-0.5-0.7l-0.8-0.6   l-6.3-0.7l-0.8,0.9l-0.602,1.2l-2.1,2.3l-4.9,6.8l-0.7,0.5l-12.302,11.7l-0.8,1.2l-0.5,1.2l-0.5,0.5l-4.2,2.6l-1.898,1l-4.7,3.9   l-0.8,1l-0.602,0.4l-1.398,0.6l-0.3,0.2l-0.302,0.3l-0.5,1.2L346.8,425.6l-0.5,0.4l-0.602,0.3l-0.8,0.5l-0.5,0.5L344,428   l-0.302,0.4l-0.398,0.3l-1.102,0.2H340.5l-0.4,0.1l-0.4,0.3L337.5,430.9l-2,1.1l-0.602,0.7l-1,1l-0.5,0.5l-0.6,0.2l-0.801,0.199   l-1.5,0.5l-2.199,1l-0.801,0.199h-1.699L325,436.4l-1.302,0.398h-0.6l-2.8-0.398l-4.9,0.1l-0.6-0.1l-3.301-1.4l-0.5-0.1h-0.699   h-0.801l-1.199,0.3l-2.4,0.1l-2.1,0.4l-0.602-0.101l-0.397-0.3l-1.9-1.398l-0.5-0.2l-0.5-0.2l-3.698-0.3l-2.302,0.399l-4.5,1.5   l-0.5,0.199h-0.5l-0.6-0.1l-0.5-0.2l-5.5-2.5l-0.7-0.1l-0.898,0.1l-1.5,0.2l-0.9,0.399l-0.7,0.399l-1,0.601l-0.6,0.301L274.9,434.6   l-2.5,0.101l-1.898,0.5l-1.2,0.5l-2.4,1.3l-0.698,0.2l-0.5,0.1l-3.9,0.102l-6.7,2.398l-1.8,1.301l-1.1,1.399l-0.7,0.3L250,442.9   l-0.4,0.199l-0.398,0.5l-0.2,0.601l-0.4,0.7l-0.5,0.3l-0.8,0.2l-1.1,0.1l-3,0.7l-0.7,0.3l-0.4,0.3l-1,1.5l-0.8,0.801l-0.8,0.399   l-3,1.101l-5.602,3.601l-2.3-2.8l-7.8-14.301l-3.7-5l-1.1-3.5l-1.3-1.301L212.4,425.4l-1.8-3.301l-0.898-3.2l-0.9-7.8l-2.4-8.4   l-7.6-15.2l-2.1-8.3l-0.5-4l-1.802-7.8l-3.1-7.9l-2-3.4l-2.4-2.6l-5.698-4.8l-1.5-2.9l-3.5-10.4l-6.9-13.4l-0.8-2.7l-3.7-5.1   l-6.5-12.1l-0.7-2.2l-1-1.4l-2.2-4.7l-0.8-1l-3.898-7.2l-1.2-3l-0.4-1.8l-0.6-4.4l-1-2l-2.8-3.8l-1.802-3.3l-4.198-10.9l-1.802-3   l-2.698-3.2l-3.2-2.5l-0.8-1.3l-1.102-6.8l-0.7-2L113,218l-13.2-11.3l-0.9-0.4l-0.6-0.5l-1.5-2.2l-0.9-0.5L95,202.5l-5-6.3   l-0.8-1.4L88.9,193l-1.1-2.9l-0.1-1.1v-1l-0.102-0.9l0.2-1l-2.1-3l-3.4-9.3l-0.5-0.6l-7.9-9.8l-2-2l-1.1-1.4l-0.5-1.5l-0.3-2.1   l-2.7-6l-0.5-1.9l-0.3-8.5l-1.602-5.2l-0.6-12.7l-1.3-3.5l0.898-2.1l-0.1-2.7l-0.8-5l0.398-7.5l2.9-19.1l1-1.3l1.1,0.2l1.5,0.8   l1,0.2L72.2,82l0.398-0.4l0.2-0.6l0.5-0.8l1.7-1.1l3.6-1.8L82.7,74l3.6-1.7l4-1.3l4.1-0.5L95,70.3l0.5-0.2l0.7,0.1l0.898,0.6l3,0.9   l1-0.2l0.4-0.4l0.5-0.3l0.8,0.3l0.5,0.5l0.3,0.6L103.7,73l0.3,0.7l0.5,0.5l0.898,0.7l1,0.5l0.9,0.3l0.8,0.4l0.5,0.9l0.2,0.8   l0.3,0.5l6.3-0.7l5.7,0.2l1.3-0.5l1.2-1l0.9-0.1l2.1,1.3l1.602,0.6l5.198,0.4l3.102,0.8l1.1-0.1L139.7,78l4-3.5l2.1-0.8l2.2-0.3   l1.7-0.9l3.1-2.7l3.9-2l3-0.9l0.5-0.8l0.8-1.4l0.8-0.8l0.6-0.3L164,63.1l0.8-0.5l0.3-0.9l0.2-1l0.4-1l2.1-0.6l1.7-0.8l2.8-0.7   l4.6-2.8l9.4-1.7l2-0.7l1.9-0.1l1.698,1.2L193,52.9l0.7,0.5l0.6,0.9l0.9,0.5l2,0.3l1,0.1l0.898-0.4v0.7l2.3-1.1l1.302-0.3l0.6,0.4   h0.6l3.7-1l1.602,0.6l3.1,2.2l1.5,0.5l2.1,0.3l1.9,0.8l1.3,1.3l1.102,3.7l1.3,1.3l0.8,1.6l-0.9,2.7l7.5,4.3l7.7,6.6l16.7,9.6l1.1,1   l4,5.6l1.302,1.1l2.1,0.4l1.1-0.2L264.2,96l0.8-0.3l1,0.2l1.6,0.5l1.9,0.2l1.5,0.5h1l1-0.3L274.4,96L275,95.7l3.8,0.7l2-0.3   l0.8-1.9l0.102-0.5h1h0.1l-0.1,2.1l-0.302,0.9L283,97.3l-0.5,1.6l-1.7,3.3l-0.7,2l-2.8,4.3l-1.8,2.2l0.3,2.5l3.6,2.3l0.5,2.1   l-0.3,2.5l-0.3,1.8l-0.8,1.5l-1.7,1.9l1.2,4.5l8.5,17.9l2.5,11.6l1.5,35.4l-0.8,13.4l0.5,6.5l3.5,11.4l2.398,5.2l1.602,5.3   l-1.602,9.7l-0.6,9.8l3.698,11l1.7,2.6l2.5,2.1l2,3.2l0.4,4.2l-1,1.6l-1.102,1.3l-0.8,4L314,286.3l1.6-3.6l0.1-5.1l-4.898,0.3   l-0.4-4.1l0.2-3.8l4.1-0.8l24.2-0.2l20.3-2.8l5.4,1.2l5.3,0.4l9.3-3L379,270l16.398-0.2l3.102-0.4l3.6,0.4l11.1,2.9l7.4,0.9   l3.3-0.2l3.102,0.7l6.898,3.9l10.602,1.6l6.198,1.7l5,0.5l11.802,3.7l16.3,2.4l5.3,0.1L494.6,289.5L494.6,289.5z" />
	<path
   id="_x31_0m-admin-1-states-provinces-shp.3635_1_"
   fill="#FEFEEA"
   d="M357.6,686.5l-2.2-3.301L306,678.401l-3.2-8.603   l-1.102-4.299v-0.9l0.7-0.899l2.2-3.799l1.1-1.103l-0.1,2l0.5,0.9l0.5-0.5l0.3-2.101l-0.2-3.698l-1.6-11l-0.9-3.4l-1.5-2.4   l-1.3-2.698l-0.898-3.103L299.9,629.6l-0.398-6.3l0.198-0.898l0.4-0.9l1.1-1.8l0.302-0.9v-3.9l0.198-0.2h0.602l0.2,0.398L302,615.9   l0.398,0.6l0.5,0.9l0.3,0.398l-0.5,1.9l-0.1,1.898l0.6,1l1.9-0.898l-0.2,1.1l-1,2.9l1.3-1.3l2-3.802l1.2-0.8l1-1l0.601-2.1   l0.399-4.4l-0.6-16.6l-1.602-12.5l-2.1-3.4l-0.9-4.2l-3.2-6.5l-1.698-5.6l-2.8-6l-0.602-0.8l-5.7-6.5l-1.8-3.101l-0.1-2.199   l-0.2-0.9l-13.5-17.8L269,520l-0.7-1.6L261,511.6l-1.7-0.801v-1l0.398-1l0.2-0.5l0.602-2.398V505.3l-0.301-1.199L259.8,503.3   l-7-10.699l-1.3-6.101l-2.801-6.8l-9-12l-5.399-9.3l-3.4-4.2l5.602-3.601l3-1.101l0.8-0.399l0.8-0.801l1-1.5l0.4-0.3l0.7-0.3l3-0.7   l1.1-0.1l0.8-0.2l0.5-0.3l0.4-0.7l0.2-0.601l0.398-0.5l0.4-0.199l1.5-0.102l0.699-0.3l1.101-1.399l1.8-1.301l6.7-2.398l3.898-0.102   l0.5-0.1l0.7-0.2l2.4-1.3l1.2-0.5l1.898-0.5l2.5-0.101l0.602-0.2l0.6-0.3l1-0.601l0.7-0.399l0.9-0.399l1.5-0.2l0.898-0.101   l0.7,0.101l5.5,2.5l0.5,0.2l0.6,0.1h0.5l0.5-0.199l4.5-1.5l2.302-0.399l3.698,0.3l0.5,0.2l0.5,0.2l1.9,1.398l0.398,0.301   l0.602,0.101l2.1-0.4l2.4-0.1l1.199-0.3h0.801h0.699l0.5,0.1l3.301,1.4l0.6,0.1l4.9-0.1l2.8,0.398h0.6l1.3-0.398l0.802-0.102h1.698   l0.802-0.199l2.198-1l1.5-0.5l0.802-0.199l0.6-0.2l0.5-0.5l1-1l0.6-0.7l2-1.1l2.2-1.602l0.4-0.3l0.398-0.101h1.7l1.102-0.199   l0.398-0.301l0.3-0.399l0.4-0.7l0.5-0.5l0.8-0.5l0.602-0.3l0.5-0.4l0.398-0.398l0.5-1.2l0.3-0.3l0.302-0.2l1.398-0.6l0.602-0.4   l0.8-1l4.7-3.9l1.898-1l4.2-2.6l0.5-0.5l0.5-1.2l0.8-1.2l12.3-11.7l0.7-0.5l4.9-6.8l2.1-2.3l0.602-1.2l0.8-0.9l6.3,0.7l0.8,0.6   l0.5,0.7l0.7,1l1.3,1.1l1.8,0.9l3.7,1.4l3.9,0.8l-0.4,10.1l0.2,0.9l0.7,1.4l4.398,1.4l0.7,0.1l0.9-0.1l3.1-0.7l0.9-0.1l0.398,0.4   l0.302,0.6l1.398,4.8l0.8,1.1l7,6.4l17.5,9.7l5.302,5.101l4.1,1.6l3.7,2.2l1,0.4l0.6-0.2l0.602-0.4l3.8-4.199l0.5-0.399l0.3,0.2   l0.2,0.6l0.7,3.102l0.6,1.198l0.9,1.2l2.3,2.102l1.2,0.898l1.5,0.8l0.698,0.5l3,3l0.302,0.5l0.6,1.302l0.5,0.698l0.6,0.4l0.9,0.2   l8.5,1v5.5l-0.7,3.1L486.3,473l-0.302,2.8l-3.5,3.5L479.1,484l-1.102,1.3l-0.398,0.8l-0.3,1.2l-0.9,7.5l-2.7,10.602l3.4,10.898   l0.2,2.2l0.398,1.601l0.4,0.199l0.7,0.301l0.898,0.801l1.3,2.199l0.2,1.399l-0.1,1.3l-0.5,0.9l-0.4,0.899l-0.1,0.801l0.5,0.898   l0.6,0.801l0.3,0.5l-0.1,0.399l-0.3,0.601l-0.602,2.601l-0.1,2.7l-0.7,0.898l-0.8,0.5l-1-0.1h-0.8l-0.3,0.3l0.3,0.8l2.898,4.2   l0.302,0.9l-0.5,0.3l-1.802,0.899l-1,1.199l-3,2.2l-0.5,0.601l0.2,0.899l2.4,5.7v0.7l-0.2,0.5l-0.6,0.8l-0.302,0.5l-0.198,0.7   l0.3,1l0.5,1.1l2.898,4.7l-3.698,1.6l-4.102,3L469.8,572.9l-0.5,1.5v4.199l-0.2,0.4l-0.3,0.7l-1,0.1h-1.102l-1.3-0.1h-1.1l-1,0.2   l-0.9,0.898l-3.1,2.602l-1.102,1.8l-2.6,2.3l-1.3,0.7l-1.102,0.5h-1.1l-5.4-1.601h-1.3l-1.2,0.801l-6.898,7.199l-1.602,2.101   l0.4,0.399l0.3,0.301l6.6-0.2l0.802,0.1l0.6,0.2l0.3,0.8v0.801l-0.1,9.801l-0.102,1.1l-0.398,0.9l-0.9,0.3h-5.3l-1.1,0.2l-1.5,0.3   l-1.4,1l-2.4,1.2l-0.898,1.3l-0.602,1.3l-1,8.7v0.399l0.102,0.399l0.2,0.799l0.398,2l0.2,2l-0.1,1.103l-0.2,0.897l-1.5,4.801   l-0.2,0.9l-0.1,0.9l0.5,0.897l3.898,4.801l0.3,0.699l-0.5,0.5l-0.898,0.4l-7.2,2.301l2.2,11.6v0.4l-0.102,0.699l-0.398,0.201   l-0.8,0.198l-2.9,0.5l-0.9,0.302l-0.5,0.698l-0.5,0.9l-2.3,5.6l-0.3,0.802v0.799l0.5,0.6l0.6,0.4l6.802,3.1l0.6,0.603l0.2,0.698   l0.1,0.9l-1.1,13.6l0.2,0.802l0.898,3.799v0.6l-0.5,3.603l-1.8,1.6l-7.3,0.799l-25.5-11.397l-10.102-2.701l-1.198-0.101l-1.9,0.199   l-8.8-1.5l-6.4,0.603l-2-0.201l-1-0.199l-0.699-0.201L358.6,687.5l-0.3-0.301L357.6,686.5L357.6,686.5z" />
	<path
   id="_x31_0m-admin-1-states-provinces-shp.3636_1_"
   fill="#FEFEEA"
   d="M723.4,229.1l-0.1,35.5l152.898-1.6l0.302,111.8   l-2.2,0.2l-1.5,0.7l-1.3,0.3l-5.602,0.3l-4.7,1.5l-1.3,0.2l-6.1,0.3l-3.3-0.3l-4.5-1.3l-9.4-1.3H833l-3.102,0.5h-1.7l-4.1-0.8   l-1.7-0.5l-2.2-1.2l-1.6-0.4l-71.2-8.2l-2.3-0.3l-5.3,0.1l-2.4,0.4l-1.8,0.8l-2.8,2.7l-2.7,1.4l-42.2,16.3L687,386.7l-3.102,2.6   l-2.5,2.8l-15.7,26.5l-0.5,1.3L662.5,433l-0.602,2l-2.398,4.9l-0.602-1.2l-0.6-0.602l-0.9-0.698L656,437.5l-6.4,1.4l-1.7,1.1   L647,443.7l-0.4,2.898v0.802l0.3,0.1l0.8-0.1l2.9-0.5h0.7l0.3,0.3v0.8l-0.2,1.8l-0.3,1l-0.5,1l-1.1,0.8l-3.102,1.9l-0.7,0.7l-0.1,1   l0.1,0.898L646,458l1.3,2.399l0.2,0.699L647,461.2l-9.2-2.602l-0.9-0.1l-0.8,0.2l-0.9,0.2l-0.899,0.7l-0.8,0.802l-0.302,1.8   l-0.1,4.3l0.1,0.7l0.5,0.3h0.802l1.898-0.101l1.5-0.399l0.3,0.2l0.302,0.7l0.698,3v0.898l-0.1,0.9l-1.3,1.2l-0.2,0.898v0.9l0.5,4.1   v0.9l-0.3,0.8l-2.2,1.3l-0.101,0.601v0.399l0.301,1l0.1,0.8v0.7l-0.2,2.7l0.802,4l-0.102,1.2l-0.3,1.3l-2.4,3l-1.898,1.2l-5.5,2.6   l-1.102,1L616,505.9l-2-0.302L610.4,506.4l-4.2,1.898l-3,2.5l-1.898,1.8l-1,0.801l-2.4,1.199l-4.1,0.9l-2.602,0.8l-0.6,0.101   L590,516.2l-1.4-1.5l-0.8-0.7l-0.8-0.101l-0.9,0.199L582,515.2l-1,0.398l-0.9,0.5l-0.6,1l-1,2.7l-0.5,0.4l-2.9,1.7l-1,0.698l-0.8,1   l-0.602,1.802L572.3,526l-0.7,0.7l-0.8,0.7l-0.9,0.6l-1,0.1h-1.8l-0.6,0.2l0.1,0.9l1.8,5.1l0.2,0.8v0.602l-0.9,2.6l-0.398,0.8   l-0.5,0.602l-0.801-0.2l-3.5-1.5l-0.699-0.101l-0.102,0.5l0.2,1.801l-0.1,0.8l-0.7,0.6l-0.9,0.602L556,544l-0.802,0.1L554.8,543.7   l-0.3-0.801l-0.5-2l-0.302-0.801l-0.5-0.398l-0.8,0.6l-0.7,0.8l-1.5,1.7l-0.5,0.9l-0.1,0.898v3L549,548.7l-1.102,1.1l-8.398,4   l-1,0.2l-0.602-0.601l-0.6-0.899l-0.5-1l-0.5-0.9l-0.7-0.6l-0.8,0.399l-1,0.601l-5.801,5l-0.699,0.5l-0.5-0.101l-0.5-0.699   l-0.602-1l-0.6-0.9l-0.7-0.399l-1.1,0.5l-0.9,0.8l-1.8,1.801l-0.8,0.699l-1,0.601h-1.2l-4,1.5l-0.9,0.101l-1.199-1l-1.101-0.7   L508,557.6l-1.102-0.699L506.1,556l-0.7-2L505,553.3l-0.5-0.2h-0.9l-0.8,0.4l-0.7,0.8l-2.5,4.399l-0.4,0.601l-0.198,0.601   l0.1,0.699l0.4,0.601l0.8,0.101l2.898-0.5l0.801,0.101l0.399,0.699l0.3,0.899l-0.398,0.9L503.5,564.1l-2.699,0.2l-2.602-0.3H497.3   l-0.8,0.399l-0.9,0.3l-0.9-0.5l-1.8-1.3l-0.8-0.301l-0.7,0.5l-0.7,0.7l-1.3,1.8l-0.7,0.7l-0.6,0.399l-0.5-0.601l-1.2-0.5L485.5,565   l-7,1.7l-2.9-4.7l-0.5-1.101l-0.3-1l0.2-0.699l0.3-0.5l0.6-0.801l0.2-0.5V556.7l-2.4-5.7l-0.198-0.9l0.5-0.6l3-2.2l1-1.2l1.8-0.899   l0.5-0.3L480,544l-2.9-4.2l-0.3-0.8l0.3-0.301h0.8l1,0.101l0.8-0.5l0.7-0.899l0.102-2.7l0.6-2.601l0.3-0.6l0.102-0.4l-0.302-0.5   l-0.6-0.8l-0.5-0.899l0.1-0.801l0.4-0.899l0.5-0.899l0.1-1.3L481,523.6l-1.302-2.199L478.8,520.6l-0.7-0.3l-0.4-0.2l-0.398-1.6   l-0.2-2.2l-3.4-10.899l2.7-10.601l0.9-7.5l0.3-1.2l0.4-0.8l1.1-1.3l3.4-4.7l3.5-3.5l0.3-2.8l-2.602-11.7l0.7-3.101v-5.5l-8.5-1   L475,451.5l-0.602-0.4l-0.5-0.699l-0.6-1.301l-0.301-0.5l-3-3l-0.699-0.5l-1.5-0.8l-1.2-0.899l-2.3-2.101l-0.9-1.2l-0.6-1.199   l-0.7-3.101l-0.2-0.601l-0.3-0.2l-0.5,0.4l-3.8,4.199l-0.602,0.399l-0.6,0.2l-1-0.399l-3.7-2.2l-4.1-1.601l-5.301-5.101l-17.5-9.7   l-7-6.4l-0.801-1.1l-1.398-4.8l-0.301-0.6l-0.399-0.4l-0.9,0.1l-3.1,0.7l-0.9,0.1L409,408.7l-4.4-1.4l-0.7-1.4l-0.2-0.9l0.4-10.1   l6.1,0.3l7.2,1.6l1.3,0.1l1.301-0.4l5.301-2.3l1.398-0.9l5.602-6.7l1.199-1.1l2.899-2l6.2-2.6l0.899-0.1l5.399-0.1l0.9-0.1l4.3-2.1   l0.8-0.3l1.101-0.1l1.301,0.1l1.398,0.3l1.5,1.3l1.301,0.1l1.301-0.3l1.3-0.6l1.2-0.7l1-0.9l0.5-1.2l0.199-1.2v-1.1l-0.5-3.2   l-0.301-7.7l0.5-0.7l0.9-0.8l15.7-8.2l2.6,0.1l0.8-0.1l0.602-0.2l-0.102-0.9l-1.398-4.1l-0.102-0.9l0.102-5.4l0.199-0.3l0.5-0.2   h7.801l2.398-0.7l4.9-3.4l1.6,4.3l-1.6-4.3l-0.8-3.5l1-34.8l-0.801-4.1l-0.101-1.7l0.5-0.9l0.7-0.6l24-12.6l8.399-10.6l3.699-6   l6.301-1.6l1.199,0.3l1.102,0.7l0.398,1l0.801,0.8l1.301,0.6l3-0.2l1.398,0.7l1.2,0.8l1.2,2l0.2,0.7v0.8l-0.4,2.8l0.101,0.7   l0.699,0.2l0.801,0.1l0.699-0.1l0.5-0.2l0.2-0.8v-0.8l0.2-0.9l0.399-0.6l2.301-0.6l1.8-0.3l0.6,0.1l0.2,0.7l0.4,2.9l0.1,0.9   l-0.2,0.7l-0.6,0.3l-1.601,0.3l-0.5,0.3l-0.101,0.7l0.2,3.9l0.1,0.8l0.301,0.5l0.699,0.7l0.9,0.4l1.2,0.4l1.899-0.4l1.3,0.3l1,0.3   l3,2l0.5,0.4l0.399,0.5l0.101,1.6l0.601,0.7l1.6,1.3l1.2,0.5l1.3,0.3l2.102-0.2l1.6,0.7l1.4,0.8l3.199,2.8l0.399,0.3l0.4,0.2   l5.5,0.3l1.199-0.4l2.801-1.2l2.199-0.5h1l0.601,0.5l0.399,0.8l0.601,1.7l0.5,0.8h0.7l1.1-0.5l4.101-2.4l0.899-0.8l0.601-0.8   l-0.5-1.2l-3.101-4l-0.8-1.3l-0.2-1.1v-1.3l0.3-2.1l0.5-0.7l0.4-0.6l0.6-1.2l3.2-1.7l0.3-1l0.2-1.1l0.3-1.1l0.9-0.5l1.1-0.3   l1.102-0.2l0.898-0.4l0.602-0.7l0.398-1.8l0.4-2.7v-3.5l0.1-1.2l0.301-1.1l0.699-0.7l0.2-1.3l-0.1-1.3l-0.7-6.5l0.1-0.9l0.602-0.4   l1-0.1h1.3l1.399-0.6l1.601-0.9l2.2-2.8l1.6-1l2.601-1.3l0.899-1.1l0.7-9.9l1.399-8.2L723.4,229.1L723.4,229.1z" />
	<path
   id="_x31_0m-admin-1-states-provinces-shp.3637_1_"
   fill="#FEFEEA"
   d="M282.4,96.7l0.302-0.9l0.1-2.1h29.8l87.899,0.1   l0.101,6.3l2.6,5.7l2.2,3.1l0.9,1.8l1.2,2.9l0.698,7.8l-31.6,32.7l-0.1,1.5l1.6,0.8l10.1,6l3.802,1.5l3.198,2.2l1.102,4.6l0.1,4.9   l4.4,35.3l-1.7,5.3l-2.8,4.3l0.5,5.3l3.898,10.2l-0.6,5.5l-3.6,3.5l1.5,3l2.1,2.6l2.3,0.8l1.9,1.3l-2.9,1.5L398,254.6l-3.602,1.8   L391,258.7l-3.102,1.1l-3.3,0.7l-2.7,1l-2.7,0.7v1.2v1.4l-9.3,3l-5.3-0.4l-5.4-1.2l-20.3,2.8l-24.2,0.2l-4.1,0.8l-0.2,3.8l0.4,4.1   l4.898-0.3l-0.1,5.1l-1.602,3.6l-11.1-0.3l0.8-4l1.102-1.3l1-1.6l-0.4-4.2l-2-3.2l-2.5-2.1l-1.7-2.6l-3.698-11l0.6-9.8l1.6-9.7   l-1.6-5.3l-2.4-5.2l-3.5-11.4l-0.5-6.5l0.802-13.4l-1.5-35.4l-2.5-11.6l-8.5-17.9l-1.2-4.5l1.7-1.9l0.8-1.5l0.3-1.8l0.3-2.5   l-0.5-2.1l-3.6-2.3l-0.3-2.5l1.8-2.2l2.8-4.3l0.7-2l1.7-3.3l0.5-1.6L282.4,96.7L282.4,96.7z" />
	<path
   id="_x31_0m-admin-1-states-provinces-shp.3638_1_"
   fill="#FEFEEA"
   d="M376.5,155.6l0.1-1.5l31.6-32.7v0.5l1.602,5.1l13.3-1.8   l16-2.3v31l1.2,0.2l1.2,1.4l0.5,2l0.5,7.6l-0.7,5.6l-1,2.5l-4,5.7l-1.5,1l-1.102,1.6l0.102,4.3l0.898,4.2l-0.5,6.9l0.7,2.4l1.2,2.2   l1.4,4.9l3.898,4.8l0.4,2.5l-1.7,1.4h-1.9l-1.898,0.8l-2.7,3.5l-3.9,4l-3.3,4.5l-1.2,3l-0.5,3.1l0.102,5.8l0.6,1.3l0.2,2.5l2.9,6.5   l1.6,2.9l0.9,2.5l1.5,1.9l2.898,1.9l-0.7,2.9l-1.8,0.9L432,264.2l0.1,2.6l1.1,6.8l0.802,2.2L433.9,278L427,274.1l-3.102-0.7   l-3.3,0.2l-7.4-0.9l-11.1-2.9l-3.601-0.4l-3.101,0.4L379,270l0.198-5.2v-1.4v-1.2l2.7-0.7l2.7-1l3.3-0.7l3.102-1.1l3.398-2.3   l3.602-1.8l3.398-0.4l2.9-1.5l-1.9-1.3l-2.3-0.8L398,248l-1.5-3l3.6-3.5l0.6-5.5l-3.898-10.2l-0.5-5.3l2.8-4.3l1.7-5.3l-4.4-35.3   l-0.1-4.9l-1.102-4.6L392,163.9l-3.802-1.5l-10.1-6L376.5,155.6L376.5,155.6z" />
	<path
   id="_x31_0m-admin-1-states-provinces-shp.3639_1_"
   fill="#FEFEEA"
   d="M400.6,100.1l-0.1-6.3H614.9v35.8L505,129.9   L473.4,143.7l-7.2-3l-27.1-17.8l-16,2.3l-13.3,1.8l-1.602-5.1l-0.699-8.3l-1.199-2.9l-0.9-1.8l-2.2-3.1L400.6,100.1L400.6,100.1z" />
	<path
   id="_x31_0m-admin-1-states-provinces-shp.3640_1_"
   fill="#FEFEEA"
   d="M872.8,375.7l1.5-0.7l2.2-0.2l0.198,61.602L877,527.8   l-1.102,3.5h-87.3l0.2,176.8l-55.9-0.198l-6-0.802l-0.398-16.801l-0.4-1l-0.8-0.699l-2.102-0.5l-1.3,0.101l-1.1,0.6l-4,5l-0.4,0.4   L716,694.401l-8.2-0.302l-1.7-0.301l-0.3-0.699l0.1-0.801l0.4-0.799V691l-0.602-0.301L701,690.401l-0.802,0.198l-16.398,6.5   l-1.2,0.101l-7.1-1.299l-1.802-0.603L672.3,694.5l-4.3-4.6l-0.9-0.802l-1.1-0.6l-0.802,0.299L664.3,689.5l-1.4,1.5l-0.6,0.4   l-0.5-0.4l-8.102-15.9l0.102-1.198l5.2-13.103l0.3-1.1v-0.9l-0.9-0.897L646.1,647.7l-0.6-1l0.1-1.101l0.3-1.198l0.6-1l0.802-0.701   l0.8-0.299l5-0.302l0.8-0.301l0.5-0.699l-0.7-3.1l-0.8-2.201l-0.4-0.698l-0.5-0.302l-0.8-0.198l-1.898-0.302l-1-0.198l-0.802-0.302   l-1.898-2.397l-1.4-0.802l-0.399-0.801l-0.399-0.897l-0.101-1l0.101-0.802l0.6-0.6l0.4-0.3l4-1.601l0.7-0.399l0.3-0.5l0.2-0.9   l0.1-1.8v-0.899l-0.2-0.601h-0.699l-6.199,2.4h-0.9l-0.6-0.602l-0.2-10.1l-0.2-2.7l-2.5-7.5l-0.5-1.899l-1.1-9.899l-2.4-12.3   l-0.3-0.602l-0.4-0.398l-0.8,0.5l-2.7,2.199l-0.1,0.199l-0.2-0.1l-2.2-1.7l-0.699-0.7l-0.301-0.699l0.7-0.601l2.9-1.6l0.398-0.602   l-0.699-0.699l-1.699-1.399l-1.2-1.3l-2.4-3.801l-0.5-0.601l-0.699-0.5h-3.5l-1.101-0.2l-1-1l-2.899-3.8l-2.399-5l-0.5-1.5   l-0.3-1.5l1-8.399l0.398-0.801l0.7-0.3l0.8-0.1l1.4,0.1l0.8-0.2l3.101-1.3l0.899-0.7l0.4-0.699V537.5l-0.2-0.8l-0.5-0.8l-0.3-0.602   l0.3-0.8l2.5-3.7l0.7-1.699l0.699-0.601l0.601-0.399l0.7-0.5l0.5-0.899l-0.2-2.101l-0.3-0.801l-0.301-0.5l-0.399-0.199l-0.4-0.199   l-0.3-0.4l-0.7-1.2l-0.6-0.699l-1.3-1.301l-0.301-0.3l-0.301-0.399l-0.199-0.399v-0.8l0.399-1.102l1.4-2.5l2.199-2.699l1.101-2.199   l-0.7-5.602l1.101-1l5.5-2.6l1.899-1.2l2.4-3l0.3-1.3l0.1-1.2l-0.8-4l0.2-2.7v-0.699l-0.101-0.801l-0.301-1V483.4l0.102-0.602   l2.199-1.3l0.301-0.8v-0.9l-0.5-4.1v-0.9l0.199-0.898l1.301-1.2l0.1-0.9V470.9l-0.7-3l-0.3-0.7l-0.3-0.2l-1.5,0.4l-1.9,0.1h-0.8   l-0.5-0.3l-0.1-0.7l0.1-4.3l0.3-1.8l0.801-0.801l0.899-0.699l0.9-0.2l0.8-0.2l0.899,0.101l9.199,2.601l0.5-0.101l-0.199-0.699   l-1.301-2.4l-0.3-0.899l-0.1-0.899l0.1-1l0.7-0.7l3.1-1.899l1.102-0.801l0.5-1l0.3-1l0.2-1.8v-0.8l-0.301-0.3H650.6l-2.9,0.5   l-0.8,0.1l-0.3-0.1v-0.8l0.398-2.9l0.9-3.7l1.7-1.1l6.398-1.4l1.4-0.1l0.9,0.7l0.6,0.6l0.6,1.2l2.4-4.9l0.6-2l2.7-13.1l0.5-1.3   l15.7-26.5l2.5-2.8l3.1-2.6l0.9-0.5l42.2-16.3l2.7-1.4l2.8-2.7l1.8-0.8l2.4-0.4l5.3-0.1l2.3,0.3l71.2,8.2l1.6,0.4l2.2,1.2l1.7,0.5   l4.1,0.8h1.7l3.1-0.5h3.602l9.398,1.3l4.5,1.3l3.302,0.3l6.1-0.3l1.3-0.2l4.7-1.5l5.6-0.3L872.8,375.7L872.8,375.7z" />
	<path
   id="_x31_0m-admin-1-states-provinces-shp.3642_1_"
   fill="#FEFEEA"
   d="M615.698,222.8L632,223.9l-1.4,8.2l-0.7,9.9l-0.9,1.1   l-2.6,1.3l-1.6,1l-2.2,2.8l-1.6,0.9l-1.4,0.6h-1.3l-1,0.1l-0.602,0.4l-0.1,0.9l0.7,6.5l0.1,1.3l-0.2,1.3l-0.698,0.7l-0.302,1.1   l-0.1,1.2v3.5l-0.4,2.7l-0.398,1.8l-0.602,0.7l-0.898,0.4l-1.102,0.2l-1.1,0.3l-0.9,0.5l-0.3,1.1l-0.2,1.1l-0.3,1l-3.2,1.7   l-0.6,1.2l-0.4,0.6l-0.5,0.7l-0.3,2.1v1.3l0.2,1.1l0.8,1.3l3.102,4l0.5,1.2l-0.602,0.8L608,293.3l-4.102,2.4l-1.1,0.5h-0.7   l-0.5-0.8l-0.601-1.7l-0.399-0.8l-0.601-0.5h-1l-2.199,0.5l-2.801,1.2l-1.199,0.4l-5.5-0.3l-0.4-0.2l-0.398-0.3l-3.2-2.8l-1.4-0.8   l-1.6-0.7l-2.102,0.2l-1.3-0.3l-1.2-0.5l-1.6-1.3l-0.601-0.7l-0.101-1.6L573,284.7l-0.5-0.4l-3-2l-1-0.3l-1.302-0.3l-1.898,0.4   l-1.2-0.4l-0.9-0.4l-0.699-0.7l-0.301-0.5l-0.1-0.8l-0.2-3.9l0.101-0.7l0.5-0.3l1.601-0.3l0.6-0.3l0.2-0.7l-0.1-0.9l-0.4-2.9   l-0.2-0.7l-0.6-0.1l-1.8,0.3l-2.301,0.6l-0.399,0.6l-0.2,0.9v0.8l-0.2,0.8l-0.5,0.2l-0.7,0.1l-0.8-0.1l-0.7-0.2l-0.1-0.7l0.4-2.8   v-0.8l-0.2-0.7l-1.2-2l-1.2-0.8l-1.4-0.7l-3,0.2l-1.302-0.6l-0.8-0.8l-0.398-1l-1.102-0.7l-1.2-0.3l-6.3,1.6l-3.7,6L526.1,279   l-24,12.6l-0.7,0.6l-0.5,0.9v0.2l-1-0.9l-5.3-2.9l-5.5-1.5l-5.3-0.1l-16.302-2.4l-11.8-3.7l-5-0.5l-6.2-1.7l-10.6-1.6l0.1-2.2   l-0.8-2.2l-1.1-6.8l-0.102-2.6l1.4-1.1l1.8-0.9l0.7-2.9l-2.9-1.9l-1.5-1.9L430.6,253l-1.602-2.9l-2.898-6.5l-0.2-2.5l-0.6-1.3   l-0.102-5.8l0.5-3.1l1.2-3l3.3-4.5l3.9-4l2.7-3.5l1.898-0.8h1.9l1.7-1.4l-0.4-2.5l-3.9-4.8l-1.398-4.9l-1.2-2.2l-0.7-2.4l0.5-6.9   l-0.898-4.2l-0.102-4.3l1.102-1.6l1.5-1l4-5.7l1-2.5l0.698-5.6l-0.5-7.6l-0.5-2l-1.198-1.4l-1.2-0.2v-31l27.1,17.8l7.2,3L505,129.9   l109.899-0.3L615.698,222.8L615.698,222.8z" />
	<path
   id="_x31_0m-admin-1-states-provinces-shp.3643_1_"
   fill="#FEFEEA"
   d="M1013.997,132.942L1087.5,117.7l6.698-1.3l1.602-0.1   l65.398-13.9l1.602-0.1l1.698,0.2l4.602,0.2l1,0.6l0.699-0.4l3.601-1l1.6-0.3l1.602,0.3l3.698,1.4l2.602,0.5l1.699,0.9l2.199,0.4   l0.7,0.5l0.6,0.7l0.802,0.6l1.398,0.5l0.7,0.1h0.9l0.898-0.5l1.302-1.2l1-0.6l0.5-0.6l0.6-0.7l0.8-0.3h4l7.5,1.3l0.4,0.2l0.5,0.4   l0.6,0.5l0.9,0.2l2.8-0.2l6,1.3l2.4,1.1l1.1,1.7l1.8-0.8l1.102,0.8l1.1,1.5l1.4,1.1h0.8l1.6-0.5l0.9-0.2l0.3,0.4l-0.5,1.6v0.6   l0.5,0.8l0.5,0.3l0.601,0.2h1l0.301,0.3l1.6,1.5l0.3,0.2l0.7,2.8l0.2,0.4l0.8,0.2l0.6,0.5l0.4,0.7l0.3,0.6l0.7-1.1h0.7l1.3,1.4   l0.2,0.6l-0.101,1.2l0.199,0.5l0.301,0.4l1,0.5l0.5,0.4l1.101,1.6l0.7,0.3h1.5l1.198,0.3l1.2,0.8l0.9,1.1l0.6,1.1l-5.8-1.1h-3.5   l-2.9,3l-2.898,1.2l-2.7,0.1l-0.8-1.9l-2.5,1.6l-1.102,0.1l-0.698-1.1l-1.4,0.6l-0.7-0.4l-0.6-0.8l-0.9-0.6l0.5-1.4l-0.899,0.2   l-0.399,0.5l-0.3,0.6l-0.7,0.7l-0.601,0.3l-6.399,2.2l-1.7,0.1l-1.6,0.4l-2,1.8l-1.801,0.4l-0.601,0.3l-0.5,1.4l-0.7,0.3   l-0.898,0.1l-0.7,0.3l-0.7,0.4l-0.398,0.4l-2.4,3.1l-3,2l-1.3,1.2l-4.5,5.5l-0.3,0.2l-0.302,0.6l-1.198,1.5l-0.302,0.6l-0.898,0.2   l-4,0.4l-1.102,0.3l-3-2.9l-0.198-1.4l-0.4-0.6l-0.6-0.3l-0.602-0.6l-1.5-3l-1.1-1.1l-2-0.3l-3-0.2l-1.301,0.5l-1.399,1.5l-2.5,4.5   l-0.8,0.7l-0.802-0.2l-1.5-0.8l-1-0.3l-1.8-0.3l-1.8,0.3l-3.101,1.6l-4.199,5.3l-2.9,2.2l-3.2,0.6l-0.8,0.4l-2.5,2.5l-0.7,0.6   l-2.5,1.1l-1,0.8l-0.398,0.5l-0.4,0.6l-0.399-0.3l-0.399-0.2l-0.5-0.2l-0.5,0.1l-3,2.3l-0.3,3.2l-1.4,1.4l-2.6,1.8l-1.102,1   l-1.6,2.5l-1,1.1l-1.4,0.4l-8.199,9.2l-1.301,0.9l-1.8,0.3l-2.1,2.6l-0.602,0.4l-0.398,0.3l-3.102,1.1h-1.6l-1.101-0.9l-0.699-4   l-1.4-4.1l-0.8-1.3l1.3-2l-0.9-2l-2.8-3.2l0.7-1.5l-0.5-0.9l-0.9-0.7l-0.5-1.1l-0.3-1.1l-0.899-0.4l-1.199-0.2l-1.2-0.5l-0.5-0.8   l-1.3-1.6l-1.301-1.1l-0.899,0.9l-0.8-0.1l-0.7-0.3l-0.5-0.3l-0.101-0.5l0.101-1.5v-0.6l-0.601-1l-2.601-3.2l-1-2.4l-1-1.4   l-0.3-0.5l-0.1-0.7l0.1-2.2l-0.3-0.3l-0.602-0.1l-0.6-0.2l-0.3-0.7v-1.3l-0.102-0.6l-0.5-0.4l-1.199-0.6l-3.301-0.2l-24,2.2   l-37.881,7.021L1013.997,132.942z" />
	<path
   fill="#C12737"
   d="M1013.89,133.181L914,152.7l-1.7,0.5l-0.5-0.2l-1.4-2l-2.6-1.3l-5-1.8l-4-2.3l-1.4-0.4l-3.6,0.2l-1.3-0.2   l-1.602,0.3l-1.5,0.7l-1.5,0.4l-1.398-0.7l-9.302,2.6l-6.899,2l-1.2,2.5l-2.9,0.6l-2.6,1l-2.3,0.2l-1.9-1.8l-2.6-1.4l-1.5-0.4   l-0.7,0.8l-0.601,0.4l-1.5-0.3l-1.399-0.6l-0.7-0.8l-1.4-0.8l-3.198-0.3l-3.4,0.2l-2.2,0.6l-1.1-0.6l-2.602-1.9l-3-1.6l-0.898-0.7   l-1.7-2l-2-1.8l-2.2-1l-2.2,0.6l-3.5-3l-1-0.4l-2.898,0.6h-1.2l-1-0.6l-3,2.7l-2.1-0.9l-2.4-0.2l-2,0.6l-1.3,1.2l-0.7-0.7l-1.2,0.5   l-1.2,0.2h-2.398l-5.102,0.5l-0.8-0.1l-3.1-1.1l-3.3-2h-13.9l-0.6,0.4l-1,1.8l-0.4,0.5l-1.4-0.1l-2-0.7l-1.898-0.9l-0.801-0.7   l-0.801-1.7l-1.8-0.4l-1.75,0.175c0.711,2.539,1.64,5.622,2.071,6.054c0.75,0.75,0,3.75,0,3.75l-17.75,15.75l20.75,41.25   c0,0-2,5.25-2.25,6.25s-0.25,6.5-0.25,7.75s0.75,8.5,0.75,9.75s-0.25,7-0.5,8.5s0.25,5,0.75,7s-1.25,4.5-2.5,6.5   s-4.5,3.25-6.75,3.25s-5,3.75-5.75,5c-0.447,0.746-1.869,3.989-2.945,6.489L876.199,263l-0.1-16.3v-64.6l1.7-0.1l42.3-1.8   l94.419-19.479L1013.89,133.181z"
   id="path28"
   style="fill:#ffffea;fill-opacity:1" />
	<path
   fill="#FEFEEA"
   d="M754.272,252.878c2.25,0,5.5-1.25,6.75-3.25s3-4.5,2.5-6.5s-1-5.5-0.75-7s0.5-7.25,0.5-8.5   s-0.75-8.5-0.75-9.75s0-6.75,0.25-7.75s2.25-6.25,2.25-6.25l-20.75-41.25l17.75-15.75c0,0,0.75-3,0-3.75   c-0.432-0.432-1.36-3.515-2.071-6.054l-0.25,0.025l-5,1.1l-15,0.2l-14-4.3l-1.399-0.9l-3.899,0.3l-2.601-0.6h-1l-1.899,0.4l-3,1.2   l-7.4,0.4l-11.5-2.2l-7.8-4l-3.399-0.9l-1.301-1l-1.699-2.4l-5.101-5.5l-0.8-0.6l-1.601-0.9l-0.899-0.8l-0.4-0.9l-0.5-1.7l-0.3-0.7   l-4.5-3.9l-1.2-0.6l-0.3-1.1l-3-6.1l-2.1-0.6l-0.301-0.2l-0.101-1l-1.5-3.6l-0.5-0.5l-0.6-0.3l-0.3-0.9l-0.102-0.6l-0.7-0.1h-39.1   v35.8l0.8,93.2l16.3,1.1l91.4,5.2l-0.1,35.5l22.276-0.233c1.076-2.5,2.498-5.743,2.945-6.489   C749.272,256.628,752.022,252.878,754.272,252.878z"
   id="path30" />
</g>
<g
   id="g32">
	<g
   id="g34">
		<defs
   id="defs36">
			<rect
   id="SVGID_3_"
   x="0"
   width="1300"
   height="1252.215" />
		</defs>
		<clipPath
   id="SVGID_4_">
			<use
   xlink:href="#SVGID_3_"
   overflow="visible"
   id="use40" />
		</clipPath>
		<g
   id="layerotherCountries"
   clip-path="url(#SVGID_4_)">
			<path
   id="_x31_0m-admin-1-states-provinces-shp.1280"
   fill="#E0E0E0"
   d="M482.198,1155.7l-0.198-0.9" />
		</g>
	</g>
</g>
<g
   id="Regional_Borders">
	<g
   id="layerrBoundaries">
		
			<path
   id="_x31_0m-admin-1-states-provinces-lines-shp.6579"
   fill="none"
   stroke="#808080"
   stroke-width="2"
   stroke-linecap="round"
   d="    M408.198,121.9l-0.698-8.3" />
		
			<path
   id="_x31_0m-admin-1-states-provinces-lines-shp.6580"
   fill="none"
   stroke="#808080"
   stroke-width="2"
   stroke-linecap="round"
   d="    M0,0" />
		
			<path
   id="_x31_0m-admin-1-states-provinces-lines-shp.6581"
   fill="none"
   stroke="#808080"
   stroke-width="2"
   stroke-linecap="round"
   d="    M466.198,140.7l-27.1-17.8" />
		
			<path
   id="_x31_0m-admin-1-states-provinces-lines-shp.6582"
   fill="none"
   stroke="#808080"
   stroke-width="2"
   stroke-linecap="round"
   d="    M416.6,703.299l7.3-0.799l1.8-1.6l0.5-3.603v-0.6l-0.898-3.799l-0.2-0.802l1.1-13.6l-0.1-0.9l-0.2-0.698l-0.6-0.603l-6.802-3.1    l-0.6-0.4l-0.5-0.6v-0.799l0.3-0.802l2.3-5.6l0.5-0.9l0.5-0.698l0.9-0.302l2.9-0.5l0.8-0.198l0.398-0.201l0.102-0.699v-0.4    l-2.2-11.6l7.2-2.301l0.898-0.4l0.5-0.5l-0.3-0.699l-3.898-4.801l-0.5-0.897l0.1-0.9l0.2-0.9l1.5-4.801l0.2-0.897l0.1-1.103    l-0.2-2l-0.398-2l-0.2-0.799l-0.102-0.4V625.7l1-8.7l0.602-1.3l0.898-1.3l2.4-1.2l1.4-1l1.5-0.3l1.1-0.2h5.3l0.9-0.3l0.398-0.9    l0.102-1.1l0.1-9.802v-0.8l-0.3-0.8l-0.6-0.2l-0.802-0.1l-6.6,0.2l-0.3-0.301l-0.4-0.399l1.602-2.101l6.898-7.199l1.2-0.801h1.3    l5.4,1.601h1.1l1.102-0.5l1.3-0.7l2.6-2.3l1.102-1.8l3.1-2.602l0.9-0.898l1-0.2h1.1l1.3,0.1h1.102l1-0.1l0.3-0.7l0.2-0.4V574.4    l0.5-1.5l0.898-1.602l4.102-3l3.698-1.6" />
		
			<path
   id="_x31_0m-admin-1-states-provinces-lines-shp.6583"
   fill="none"
   stroke="#808080"
   stroke-width="2"
   stroke-linecap="round"
   d="    M500.9,293.1l0.102,1.7" />
		
			<path
   id="_x31_0m-admin-1-states-provinces-lines-shp.6584"
   fill="none"
   stroke="#808080"
   stroke-width="2"
   stroke-linecap="round"
   d="    M501.6,337.2l1.6,4.3" />
		
			<path
   id="_x31_0m-admin-1-states-provinces-lines-shp.6585"
   fill="none"
   stroke="#808080"
   stroke-width="2"
   stroke-linecap="round"
   d="    M478.5,566.7l7-1.7l0.898,0.6l1.2,0.5l0.5,0.602l0.6-0.4l0.7-0.7l1.3-1.8l0.7-0.7l0.7-0.5l0.8,0.301l1.8,1.301l0.9,0.5    l0.899-0.301l0.801-0.399h0.898l2.602,0.3l2.699-0.2l0.801-0.699l0.398-0.899l-0.3-0.9l-0.399-0.699l-0.801-0.101l-2.898,0.5    l-0.801-0.1l-0.399-0.602l-0.101-0.699l0.199-0.601l0.4-0.6l2.5-4.4l0.7-0.8l0.8-0.4h0.899l0.5,0.2l0.399,0.7l0.7,2l0.8,0.899    l1.101,0.699l2.399,0.102l1.101,0.699l1.199,1l0.9-0.101l4-1.5h1.2l1-0.6l0.8-0.7l1.8-1.8l0.9-0.8l1.1-0.5l0.7,0.398l0.6,0.9    l0.602,1l0.5,0.7l0.5,0.1l0.7-0.5l5.8-5l1-0.6l0.8-0.4l0.7,0.6l0.5,0.9l0.5,1l0.6,0.9l0.6,0.6l1-0.2l8.4-4l1.1-1.1l0.602-1.102v-3    l0.1-0.898l0.5-0.9l1.5-1.7l0.7-0.8l0.8-0.6l0.5,0.398l0.3,0.802l0.5,2l0.302,0.8l0.398,0.398l0.8-0.1l4.2-1.8l0.9-0.601    l0.7-0.601l0.1-0.8l-0.2-1.8l0.102-0.5l0.698,0.1l3.5,1.5l0.802,0.2l0.5-0.601l0.398-0.801l0.9-2.6v-0.601l-0.2-0.801l-1.8-5.1    l-0.102-0.9l0.602-0.199h1.8l1-0.101l0.9-0.6l0.8-0.7l0.7-0.7l0.398-0.6l0.602-1.801l0.8-1l1-0.699l2.898-1.7l0.5-0.4l1-2.699    l0.602-1l0.898-0.5l1-0.399l4.102-1.101l0.898-0.199l0.802,0.1l0.8,0.7l1.398,1.5l0.602,0.2l0.6-0.102l2.602-0.8l4.1-0.899    l2.4-1.199l1-0.801l1.898-1.801l3-2.5l4.2-1.898l3.6-0.801l2,0.301l9.2-2.602" />
		
			<path
   id="_x31_0m-admin-1-states-provinces-lines-shp.6586"
   fill="none"
   stroke="#808080"
   stroke-width="2"
   stroke-linecap="round"
   d="    M478.5,566.7l-2.9-4.7l-0.5-1.1l-0.3-1l0.2-0.7l0.3-0.5l0.6-0.8l0.2-0.5v-0.7l-2.4-5.7l-0.198-0.9l0.5-0.6l3-2.2l1-1.2l1.8-0.898    l0.5-0.3L480,544l-2.9-4.2l-0.3-0.8l0.3-0.3h0.8l1,0.1l0.8-0.5l0.7-0.899l0.102-2.699l0.6-2.602l0.3-0.6l0.102-0.4l-0.302-0.5    l-0.6-0.8l-0.5-0.899l0.1-0.801l0.4-0.898l0.5-0.9l0.1-1.3L481,523.6l-1.302-2.199L478.8,520.6l-0.7-0.3l-0.4-0.2l-0.398-1.6    l-0.2-2.2l-3.4-10.899l2.7-10.601l0.9-7.5l0.3-1.2l0.4-0.8l1.1-1.3l3.4-4.7l3.5-3.5l0.3-2.8l-2.602-11.7l0.7-3.1v-5.5l-8.5-1    L475,451.5l-0.602-0.4l-0.5-0.699l-0.6-1.301l-0.301-0.5l-3-3l-0.699-0.5l-1.5-0.8l-1.2-0.899l-2.3-2.101l-0.9-1.2l-0.6-1.199    l-0.7-3.101l-0.2-0.6l-0.3-0.2l-0.5,0.399l-3.8,4.199l-0.602,0.4l-0.6,0.2l-1-0.4l-3.7-2.2l-4.1-1.6l-5.301-5.102l-17.5-9.7    l-7-6.4l-0.801-1.1l-1.398-4.8l-0.301-0.6l-0.399-0.4l-0.9,0.1l-3.1,0.7l-0.9,0.1L409,408.7l-4.4-1.4l-0.7-1.4l-0.2-0.9l0.4-10.1" />
		
			<path
   id="_x31_0m-admin-1-states-provinces-lines-shp.6587"
   fill="none"
   stroke="#808080"
   stroke-width="2"
   stroke-linecap="round"
   d="    M625.198,503.3l0.7,5.602l-1.1,2.198l-2.2,2.7l-1.4,2.5L620.8,517.4v0.8l0.2,0.398l0.3,0.4l0.3,0.3l1.3,1.3l0.6,0.7l0.7,1.2    l0.3,0.4l0.4,0.198l0.4,0.2l0.3,0.5l0.3,0.8l0.2,2.102l-0.5,0.898l-0.7,0.5l-0.6,0.4l-0.7,0.6l-0.7,1.7l-2.5,3.7l-0.3,0.8    l0.3,0.602l0.5,0.8l0.2,0.8v1.6l-0.4,0.7l-0.898,0.7l-3.102,1.3l-0.8,0.2l-1.4-0.1l-0.8,0.1l-0.7,0.3l-0.398,0.8l-1,8.4l0.3,1.5    l0.5,1.5l2.4,5l2.898,3.8l1,1l1.102,0.2h3.5l0.698,0.5l0.5,0.6l2.4,3.802l1.2,1.3l1.7,1.398l0.7,0.7l-0.4,0.602l-2.9,1.6l-0.7,0.6    l0.302,0.7l0.698,0.7l2.2,1.7l0.2,0.1l0.1-0.2l2.7-2.199l0.8-0.5l0.4,0.399l0.3,0.601l2.4,12.301l1.1,9.898l0.5,1.9l2.5,7.5    l0.2,2.7l0.2,10.1l0.6,0.601h0.9l6.2-2.399h0.7l0.198,0.6v0.9l-0.1,1.8l-0.2,0.9l-0.3,0.5l-0.7,0.398l-4,1.602L644,626.5    l-0.602,0.6l-0.1,0.8l0.1,1l0.4,0.899l0.398,0.801l1.4,0.8l1.9,2.399l0.8,0.302l1,0.198l1.898,0.302l0.802,0.198l0.5,0.302    l0.398,0.698l0.8,2.201l0.7,3.1l-0.5,0.699l-0.8,0.301l-5,0.3l-0.8,0.301l-0.801,0.699l-0.601,1l-0.3,1.2l-0.1,1.101l0.6,1    l12.3,10.199l0.9,0.899v0.9l-0.3,1.1l-5.2,13.101" />
		
			<path
   id="_x31_0m-admin-1-states-provinces-lines-shp.6588"
   fill="none"
   stroke="#808080"
   stroke-width="2"
   stroke-linecap="round"
   d="    M625.198,503.3l1.102-1l5.5-2.6l1.898-1.2l2.4-3l0.3-1.3l0.102-1.2l-0.802-4l0.2-2.7v-0.7l-0.1-0.8l-0.301-1V483.4l0.101-0.602    l2.2-1.3l0.3-0.8v-0.9l-0.5-4.1v-0.9l0.2-0.898l1.3-1.2l0.1-0.9V470.9l-0.698-3l-0.302-0.7l-0.3-0.2l-1.5,0.4l-1.898,0.1h-0.802    l-0.5-0.3l-0.1-0.7l0.1-4.3l0.302-1.8l0.8-0.802l0.898-0.698l0.9-0.2l0.8-0.2l0.9,0.1l9.199,2.602l0.5-0.102l-0.199-0.698L646,458    l-0.302-0.9l-0.1-0.898l0.1-1l0.7-0.7l3.102-1.9l1.1-0.8l0.5-1l0.3-1l0.2-1.8v-0.8l-0.3-0.3h-0.7l-2.9,0.5l-0.8,0.1l-0.3-0.1    V446.6l0.4-2.898l0.898-3.7l1.7-1.1l6.399-1.4l1.399-0.1l0.9,0.698l0.6,0.602l0.601,1.2l2.399-4.9l0.601-2l2.699-13.1l0.5-1.3    l15.7-26.5l2.5-2.8l3.101-2.6l0.899-0.5l42.2-16.3l2.7-1.4l2.8-2.7l1.8-0.8l2.4-0.4l5.3-0.1l2.3,0.3l71.2,8.2l1.6,0.4l2.2,1.2    l1.7,0.5l4.1,0.8h1.7l3.101-0.5h3.601l9.399,1.3l4.5,1.3l3.301,0.3l6.1-0.3l1.3-0.2l4.7-1.5l5.602-0.3l1.3-0.3l1.5-0.7l2.2-0.2" />
		
			<path
   id="_x31_0m-admin-1-states-provinces-lines-shp.6589"
   fill="none"
   stroke="#808080"
   stroke-width="2"
   stroke-linecap="round"
   d="    M614.9,93.8v35.8" />
		
			<path
   id="_x31_0m-admin-1-states-provinces-lines-shp.6590"
   fill="none"
   stroke="#808080"
   stroke-width="2"
   stroke-linecap="round"
   d="    M876.198,263L723.3,264.6l0.1-35.5L632,223.9" />
		
			<path
   id="_x31_0m-admin-1-states-provinces-lines-shp.6591"
   fill="none"
   stroke="#808080"
   stroke-width="2"
   stroke-linecap="round"
   d="    M1014.041,132.881l0.669,27.469" />
		
			<path
   id="_x31_0m-admin-1-states-provinces-lines-shp.6592"
   fill="none"
   stroke="#808080"
   stroke-width="2"
   stroke-linecap="round"
   d="    M416.6,703.299l-0.7,7.4l0.4,2.399l1,2.601l5.3,2.701l2.5,0.198l6.5-0.301l0.8-0.299l0.5-0.5l0.4-0.801l0.398-0.9l0.7-0.799    l1.1-0.6l4.102-0.103l11.3-3.5l0.6-0.1l2.7,0.301h1l1-0.4l5.4-2.899l0.6-0.199l-0.2,0.699L461.1,710l-0.4,1.1l-0.199,1.302    l0.301,1.799l-0.301,0.701l-0.699,0.5l-1.7,0.198l-0.4,0.101l-0.6,0.399l-0.102,1l0.5,1.5l4.9,3.699l4.9,1L466.4,721l-1.6-5.801    l1-2.5l3.3-3.299l0.8-0.5l0.7-0.103l2.8,0.801l7.9,0.5h0.8l0.398-0.301l0.4-0.6l0.5-1.101l0.2-0.698l-0.102-0.603l-0.698-2.1    L482.498,704l-0.6-0.4l-0.8-0.301l-6.7-1.897h-0.8l-1.5,0.799l-0.8,0.1l-7.602-1.799l-0.6-0.4l-0.102-0.6l0.102-0.9l1.398-5.399    l4.2-8.601l0.602-0.698l0.5-0.4l1.198,0.799l0.802,0.9l0.198,0.5l0.302,4.701l0.198,0.698l0.7,0.302h5.8l1-0.201l0.802-0.601    l9.1-8.899l0.3-0.799V680l-0.7-3l-0.3-0.801l-0.5-0.5l-6-3.299L482.3,672.1l-0.4-0.399l0.2-0.699l0.3-0.801l10.101-20l1.301-1.799    l1-0.103l2.1,1l1.601,1.4l1.801,0.6l1.699,0.103l2-0.4l3.301-0.1l3.898,1l7.102-1.701l4.398-1.9l5.2-3.897l5.9-1.103h3.6    l3.9,1.301l1.5,0.699l0.8,1.301l0.399,2.5l0.101,4.101l1.399,2.1l3.101,0.603l7.899-1.302l5.899-0.198l5-1.201l1.4-0.101    l0.3,0.101l-3.2,3.1l-0.6,0.801l-0.2,0.8v0.899l0.4,4.9l-0.102,0.701l-0.5,0.397l-3.2,1l-0.3,0.603v0.897L562.5,673l0.3,0.4    l0.5,0.299l1.398,0.399l0.7,0.302l0.3,0.397l0.2,0.801l0.7,8.4l0.5-0.4l14.7,0.199l1-0.1l0.699-0.199l0.301-0.9l0.699-0.899    l1.301-0.699l16.699-0.5l4.5,1.299l0.801,0.4l0.699,0.6l3.199,4l0.7,0.5l0.8,0.201l3.5-1.6l0.801-0.201l0.801,0.6l1.398,0.4    l1.4-0.199l1.6-0.399l6.801-3l3.801-0.9l1-0.6l0.199-1l0.199-2l0.2-0.802l0.8-0.698l7.602-3.5l6-3.5l2-0.101l2.5,3.9" />
		
			<path
   id="_x31_0m-admin-1-states-provinces-lines-shp.6593"
   fill="none"
   stroke="#808080"
   stroke-width="2"
   stroke-linecap="round"
   d="    M416.6,703.299l-25.5-11.397L381,689.2l-1.2-0.101l-1.9,0.199l-8.8-1.5l-6.4,0.603l-2-0.201l-1-0.199L359,687.799l-0.4-0.299    l-0.3-0.301l-0.7-0.699l-2.2-3.301L306,678.401" />
		
			<path
   id="_x31_0m-admin-1-states-provinces-lines-shp.6594"
   fill="none"
   stroke="#808080"
   stroke-width="2"
   stroke-linecap="round"
   d="    M653.8,673.901l-0.102,1.198L661.8,691l0.5,0.4l0.6-0.4l1.4-1.5l0.898-0.701L666,688.5l1.1,0.6l0.9,0.802l4.3,4.6l1.398,0.799    l1.802,0.603l7.1,1.299l1.2-0.101l16.398-6.5l0.802-0.198l4.698,0.299L706.3,691v0.5l-0.4,0.799l-0.1,0.801l0.3,0.699l1.7,0.301    l8.2,0.3l0.398-0.199l0.4-0.4l4-5l1.1-0.6l1.3-0.1l2.102,0.5l0.8,0.698l0.4,1L726.9,707.1l6,0.8l55.9,0.2" />
		
			<path
   id="_x31_0m-admin-1-states-provinces-lines-shp.6595"
   fill="none"
   stroke="#808080"
   stroke-width="2"
   stroke-linecap="round"
   d="    M336.4,815.799h0.2l81.4,0.603l2.1,7.698l7,46.802l0.3,0.897l0.4,0.801h0.8l1-0.198l3.3-1l1.1-0.201h1.2l0.9,0.6l0.898,1    l17.802,23.7l1.1,0.9h1.2l1.1-0.5l1.2-0.603l1.7-0.199l2.2,0.101l3.898,1.301l1.4-0.1l0.5-0.603l-4.601-23.6l-0.101-0.9    l0.101-0.897l0.801-0.5l0.898-0.4l4.4-1.301l1.1-0.101l1,0.4l1,0.6l0.8,0.601l0.602,0.701l0.1,0.397L474.8,872.5l-0.4,0.6v0.9    l1.4,4.5l3.7-2.6l1.398-2l3.3-7.103l1-1.6l0.8,0.201l0.7,0.897l2.2,3.9l0.7,1l0.7,0.399h1.1l1.5-0.1l15.5,3l0.7,0.5l1.5,0.699    l2.2,1.5l3.699,0.5l4,1.301l2.399,1.5l0.9,0.9l0.3,1.1l0.1,1.199l0.301,1.1l0.5,0.5l1.699-0.199l6.5-1.899h2.7l4.601-1.699    l1.399,0.199l14.5,6.1l0.3-16.5l2-1.299l2.5-1l1.602-0.801l0.6-0.299L564,868l0.898,0.5l1.2,0.4l16.8,1.698l11.602-1l42.398-9.899    L656.6,858l5.9,3.1l2,1.601l6.698,3.301L709.5,869.3l1.398-0.397l7.9-4.103l1.898-1.799l0.7-0.6l0.8-0.4l0.801,0.5l0.5,0.5    l7.801,11.5l0.8,0.9l0.7,0.299l1.1-0.601l2.7-2l0.7-0.399l2.3-0.4h4.2l4.898,0.701l2.2,0.799l2.101,1.603l1.301,0.6l1.398,0.4    l8.4,1.6l3.8,1.699l1.101,0.1l1.801-0.6l9.8-4.601l1.3-0.301l1.8-0.199l1.2,1l4-0.5" />
		
			<path
   id="_x31_0m-admin-1-states-provinces-lines-shp.6596"
   fill="none"
   stroke="#808080"
   stroke-width="2"
   stroke-linecap="round"
   d="    M408.198,121.9v-0.5" />
		
			<path
   id="_x31_0m-admin-1-states-provinces-lines-shp.6597"
   fill="none"
   stroke="#808080"
   stroke-width="2"
   stroke-linecap="round"
   d="    M0,0" />
		
			<path
   id="_x31_0m-admin-1-states-provinces-lines-shp.6598"
   fill="none"
   stroke="#808080"
   stroke-width="2"
   stroke-linecap="round"
   d="    M408.198,121.9l1.602,5.1l13.3-1.8l16-2.3" />
		
			<path
   id="_x31_0m-admin-1-states-provinces-lines-shp.6599"
   fill="none"
   stroke="#808080"
   stroke-width="2"
   stroke-linecap="round"
   d="    M408.198,121.4l-0.698-7.8" />
		
			<path
   id="_x31_0m-admin-1-states-provinces-lines-shp.6600"
   fill="none"
   stroke="#808080"
   stroke-width="2"
   stroke-linecap="round"
   d="    M400.5,93.8l0.1,6.3l2.6,5.7l2.2,3.1l0.9,1.8l1.2,2.9" />
		
			<path
   id="_x31_0m-admin-1-states-provinces-lines-shp.6601"
   fill="none"
   stroke="#808080"
   stroke-width="2"
   stroke-linecap="round"
   d="    M379.198,264.8v-1.4v-1.2l2.7-0.7l2.7-1l3.3-0.7l3.102-1.1l3.398-2.3l3.602-1.8l3.398-0.4l2.9-1.5l-1.9-1.3l-2.3-0.8L398,248    l-1.5-3l3.6-3.5l0.6-5.5l-3.898-10.2l-0.5-5.3l2.8-4.3l1.7-5.3l-4.4-35.3l-0.1-4.9l-1.102-4.6L392,163.9l-3.802-1.5l-10.1-6    l-1.601-0.8l0.101-1.5l31.6-32.7" />
		
			<path
   id="_x31_0m-admin-1-states-provinces-lines-shp.6602"
   fill="none"
   stroke="#808080"
   stroke-width="2"
   stroke-linecap="round"
   d="    M500.9,293.1v0.2" />
		
			<path
   id="_x31_0m-admin-1-states-provinces-lines-shp.6603"
   fill="none"
   stroke="#808080"
   stroke-width="2"
   stroke-linecap="round"
   d="    M466.198,140.7l-27.1-17.8" />
		
			<path
   id="_x31_0m-admin-1-states-provinces-lines-shp.6604"
   fill="none"
   stroke="#808080"
   stroke-width="2"
   stroke-linecap="round"
   d="    M466.198,140.7l7.2,3L505,129.9l109.898-0.3" />
		
			<path
   id="_x31_0m-admin-1-states-provinces-lines-shp.6605"
   fill="none"
   stroke="#808080"
   stroke-width="2"
   stroke-linecap="round"
   d="    M632,223.9l-1.4,8.2l-0.7,9.9l-0.9,1.1l-2.6,1.3l-1.6,1l-2.2,2.8l-1.6,0.9l-1.4,0.6h-1.3l-1,0.1l-0.602,0.4l-0.1,0.9l0.7,6.5    l0.1,1.3l-0.2,1.3l-0.698,0.7l-0.302,1.1l-0.1,1.2v3.5l-0.4,2.7l-0.398,1.8l-0.602,0.7l-0.898,0.4l-1.102,0.2l-1.1,0.3l-0.9,0.5    l-0.3,1.1l-0.2,1.1l-0.3,1l-3.2,1.7l-0.6,1.2l-0.4,0.6l-0.5,0.7l-0.3,2.1v1.3l0.2,1.1l0.8,1.3l3.102,4l0.5,1.2l-0.602,0.8    L608,293.3l-4.102,2.4l-1.1,0.5h-0.7l-0.5-0.8l-0.601-1.7l-0.399-0.8l-0.601-0.5h-1l-2.199,0.5l-2.801,1.2l-1.199,0.4l-5.5-0.3    l-0.4-0.2l-0.398-0.3l-3.2-2.8l-1.4-0.8l-1.6-0.7l-2.102,0.2l-1.3-0.3l-1.2-0.5l-1.6-1.3l-0.601-0.7l-0.101-1.6L573,284.7    l-0.5-0.4l-3-2l-1-0.3l-1.302-0.3l-1.898,0.4l-1.2-0.4l-0.9-0.4l-0.699-0.7l-0.301-0.5l-0.1-0.8l-0.2-3.9l0.101-0.7l0.5-0.3    l1.601-0.3l0.6-0.3l0.2-0.7l-0.1-0.9l-0.4-2.9l-0.2-0.7l-0.6-0.1l-1.8,0.3l-2.301,0.6l-0.399,0.6l-0.2,0.9v0.8l-0.2,0.8l-0.5,0.2    l-0.7,0.1l-0.8-0.1l-0.7-0.2l-0.1-0.7l0.4-2.8v-0.8l-0.2-0.7l-1.2-2l-1.2-0.8l-1.4-0.7l-3,0.2l-1.302-0.6l-0.8-0.8l-0.398-1    l-1.102-0.7l-1.2-0.3l-6.3,1.6l-3.7,6L526.1,279l-24,12.6l-0.7,0.6l-0.5,0.9" />
		
			<path
   id="_x31_0m-admin-1-states-provinces-lines-shp.6606"
   fill="none"
   stroke="#808080"
   stroke-width="2"
   stroke-linecap="round"
   d="    M632,223.9l-16.302-1.1l-0.8-93.2" />
		
			<path
   id="_x31_0m-admin-1-states-provinces-lines-shp.6607"
   fill="none"
   stroke="#808080"
   stroke-width="2"
   stroke-linecap="round"
   d="    M433.9,278l0.102-2.2l-0.802-2.2l-1.1-6.8l-0.1-2.6l1.398-1.1l1.8-0.9l0.7-2.9L433,257.4l-1.5-1.9l-0.9-2.5l-1.6-2.9l-2.9-6.5    l-0.2-2.5l-0.6-1.3l-0.102-5.8l0.5-3.1l1.2-3l3.3-4.5l3.9-4l2.7-3.5l1.898-0.8h1.9l1.7-1.4l-0.4-2.5L438,206.4l-1.4-4.9l-1.2-2.2    l-0.7-2.4l0.5-6.9l-0.898-4.2l-0.102-4.3l1.102-1.6l1.5-1l4-5.7l1-2.5l0.7-5.6l-0.5-7.6l-0.5-2l-1.2-1.4l-1.2-0.2v-31" />
		
			<path
   id="_x31_0m-admin-1-states-provinces-lines-shp.6608"
   fill="none"
   stroke="#808080"
   stroke-width="2"
   stroke-linecap="round"
   d="    M0,0" />
		
			<path
   id="_x31_0m-admin-1-states-provinces-lines-shp.6609"
   fill="none"
   stroke="#808080"
   stroke-width="2"
   stroke-linecap="round"
   d="    M500.9,293.3l0.102,1.5" />
		
			<path
   id="_x31_0m-admin-1-states-provinces-lines-shp.6610"
   fill="none"
   stroke="#808080"
   stroke-width="2"
   stroke-linecap="round"
   d="    M404.1,394.9l-3.9-0.8l-3.698-1.4l-1.802-0.9l-1.3-1.1l-0.7-1l-0.5-0.7l-0.8-0.6l-6.3-0.7l-0.8,0.9l-0.602,1.2l-2.1,2.3l-4.9,6.8    L376,399.4l-12.302,11.7l-0.8,1.2l-0.5,1.2l-0.5,0.5l-4.2,2.6l-1.898,1l-4.7,3.9l-0.8,1l-0.602,0.4l-1.398,0.6l-0.3,0.2    l-0.302,0.3l-0.5,1.2L346.8,425.6l-0.5,0.4l-0.602,0.3l-0.8,0.5l-0.5,0.5L344,428l-0.302,0.4l-0.398,0.3l-1.102,0.2H340.5    l-0.4,0.1l-0.4,0.3L337.5,430.9l-2,1.1l-0.602,0.7l-1,1l-0.5,0.5l-0.6,0.2L332,434.6l-1.5,0.5l-2.2,1l-0.8,0.2h-1.7L325,436.4    l-1.302,0.398h-0.6l-2.8-0.398l-4.9,0.1l-0.6-0.1l-3.301-1.4l-0.5-0.1h-0.699h-0.801l-1.199,0.3l-2.4,0.1l-2.1,0.4l-0.602-0.102    l-0.398-0.3l-1.9-1.398l-0.5-0.2l-0.5-0.2l-3.698-0.3L293.9,433.6l-4.5,1.5l-0.5,0.2h-0.5l-0.6-0.1l-0.5-0.2l-5.5-2.5l-0.7-0.1    l-0.898,0.1l-1.5,0.2l-0.9,0.398l-0.7,0.4l-1,0.6l-0.6,0.302L274.9,434.6l-2.5,0.102l-1.898,0.5l-1.2,0.5l-2.4,1.3l-0.698,0.2    l-0.5,0.1l-3.9,0.102l-6.7,2.398l-1.8,1.3l-1.1,1.4l-0.7,0.3L250,442.9l-0.4,0.198l-0.398,0.5L249,444.2l-0.4,0.7l-0.5,0.3    l-0.8,0.2l-1.1,0.1l-3,0.7l-0.7,0.3l-0.4,0.3l-1,1.5l-0.8,0.8l-0.8,0.4l-3,1.1L230.9,454.2" />
		
			<path
   id="_x31_0m-admin-1-states-provinces-lines-shp.6611"
   fill="none"
   stroke="#808080"
   stroke-width="2"
   stroke-linecap="round"
   d="    M501.6,337.2l-4.9,3.4l-2.398,0.7h-7.8l-0.5,0.2l-0.2,0.3l-0.102,5.4l0.102,0.9l1.398,4.1l0.102,0.9l-0.602,0.2l-0.8,0.1l-2.6-0.1    l-15.7,8.2l-0.9,0.8l-0.5,0.7l0.302,7.7l0.5,3.2v1.1l-0.2,1.2l-0.5,1.2l-1,0.9l-1.2,0.7l-1.3,0.6l-1.3,0.3l-1.302-0.1l-1.5-1.3    l-1.398-0.3l-1.3-0.1l-1.102,0.1l-0.8,0.3l-4.3,2.1l-0.9,0.1l-5.398,0.1l-0.9,0.1l-6.2,2.6l-2.898,2l-1.2,1.1l-5.602,6.7    l-1.398,0.9l-5.3,2.3l-1.302,0.4l-1.3-0.1l-7.2-1.6l-6.1-0.3" />
		
			<path
   id="_x31_0m-admin-1-states-provinces-lines-shp.6612"
   fill="none"
   stroke="#808080"
   stroke-width="2"
   stroke-linecap="round"
   d="    M501.6,337.2l-0.8-3.5l1-34.8l-0.8-4.1" />
		
			<path
   id="_x31_0m-admin-1-states-provinces-lines-shp.6613"
   fill="none"
   stroke="#808080"
   stroke-width="2"
   stroke-linecap="round"
   d="    M433.9,278L427,274.1l-3.102-0.7l-3.3,0.2l-7.4-0.9l-11.1-2.9l-3.601-0.4l-3.101,0.4L379,270l0.198-5.2" />
		
			<path
   id="_x31_0m-admin-1-states-provinces-lines-shp.6614"
   fill="none"
   stroke="#808080"
   stroke-width="2"
   stroke-linecap="round"
   d="    M379.198,264.8l-9.3,3l-5.3-0.4l-5.4-1.2l-20.3,2.8l-24.2,0.2l-4.1,0.8l-0.2,3.8l0.4,4.1l4.898-0.3l-0.1,5.1l-1.601,3.6L302.9,286    l0.8-4l1.102-1.3l1-1.6l-0.4-4.2l-2-3.2l-2.5-2.1l-1.7-2.6l-3.698-11l0.6-9.8l1.602-9.7l-1.602-5.3L293.7,226l-3.5-11.4l-0.5-6.5    l0.8-13.4l-1.5-35.4l-2.5-11.6l-8.5-17.9l-1.2-4.5l1.7-1.9l0.8-1.5l0.3-1.8l0.3-2.5l-0.5-2.1l-3.6-2.3l-0.3-2.5l1.8-2.2l2.8-4.3    l0.7-2l1.7-3.3l0.5-1.6l-0.602-0.6l0.3-0.9l0.102-2.1" />
		
			<path
   id="_x31_0m-admin-1-states-provinces-lines-shp.6615"
   fill="none"
   stroke="#808080"
   stroke-width="2"
   stroke-linecap="round"
   d="    M500.9,293.3l-1-0.9l-5.3-2.9l-5.5-1.5l-5.3-0.1l-16.3-2.4l-11.802-3.7l-5-0.5l-6.198-1.7L433.9,278" />
	</g>
	
		<path
   id="_x31_0m-admin-1-states-provinces-lines-shp.6590_1_"
   fill="none"
   stroke="#808080"
   stroke-width="2"
   stroke-linecap="round"
   d="   M744.277,264.412c0,0,3.495-5.283,4.245-6.533s3.5-5,5.75-5s5.5-1.25,6.75-3.25s3-4.5,2.5-6.5s-1-5.5-0.75-7s0.5-7.25,0.5-8.5   s-0.75-8.5-0.75-9.75s0-6.75,0.25-7.75s2.25-6.25,2.25-6.25l-20.75-41.25l17.75-15.75c0,0,0.75-3,0-3.75s-2-5.5-2-5.5" />
</g>
<g
   id="National_Borders">
	<g
   id="g85">
		<defs
   id="defs87">
			<rect
   id="SVGID_5_"
   x="0"
   width="1300"
   height="1252.215" />
		</defs>
		<clipPath
   id="SVGID_6_">
			<use
   xlink:href="#SVGID_5_"
   overflow="visible"
   id="use91" />
		</clipPath>
		<g
   id="layeriBoundaries"
   clip-path="url(#SVGID_6_)">
			<path
   id="_x31_0m-admin-0-boundary-lines-land.114"
   fill="none"
   stroke="#646464"
   stroke-width="3"
   d="M1252.5,132.3l-3.5,8.1     v2.7l0.6,2.2l2.5,6.6l3.7,6.4l2.3,2.6l3,1.9l2.7,2.2l1.8,3.5l2.9,7.3l2.8,4.8l0.7,1.9l0.8,4l0.5,1.2l1.1,1.9l5.8,6.4l3,2.1     l1.2,1.2l4.101,6.2l2.601,2.3l3.399,1.7l2.199,2.1l1,3.3l0.5,7l3.102,7.1l11.1,10.2l2.3,7.5l-0.3,2l-1.4,3.5l-0.3,2l0.4,2.2     l0.6,1.8l2.2,3.8l2.7,3.6l2,4.2l8.398,24.4l2.2,3.4l3.4,2.2l4,1.1l4.698,0.1l0.9,0.4l0.9,0.7l0.698,0.7l0.802,1.2l0.3,0.8l-0.7,2     l-0.6,1.2l-0.602,0.3v0.1l1.102,0.8l0.698,0.3l2.602,0.5l2,1.1l2.398,3.8l1.7,1.6l1.602,0.7l3.5,0.8l1.698,0.7l3.5,2.3l1.5,1.6     l0.802,1.8l0.6,2.1l1.2,1.3l1.6,0.8l4,1.1l1.3,0.8l0.9,1l1.2,1.7l1.398,1.4l1.5,0.8l1.7,0.4h2.101l3.301,0.6l9.898,5.2l3.2,0.6     h2.9l2.8,0.3l3,1.6l0.8,1l1.5,2.2l1,0.7l1,0.5h0.9l0.899-0.1l1.101,0.1l1.8,0.3l1.8,0.5l1.602,1l1.198,1.7l4.5,11.7l1.602,11.2     l-1.4,13.6l3.301-1.7l3-0.4h10l7,0.9l5-0.9l3.101,1.5h3.5l1.6,0.7l1.2,1.2l0.7,1.7l-0.3,3.7l-1.102,3.4l-0.6,3.4l2.1,7.5l0.2,3.8     l-1.3,7.7l-0.5,1.1l-0.602,0.802l-0.5,0.8l-0.1,1.3v1.1l-0.2,2.102v0.898l0.7,5.302l-0.2,2l-1,5.1v1.601l0.7,1.801l3,4.199     l1.3,1.5l6.101,4.5l2.601,3.301l2.3,3.6l3.102,3.8l0.898,1.3l0.2,0.802l-0.101,1.5l0.199,0.698l0.5,0.9l1.5,1.5l2.602,5.5     l0.198,0.9l-0.3,0.8l-0.7,1.1l-0.1,0.9l0.3,0.2l0.602,0.198l0.3,0.602l-0.4,1.2l0.302,0.898l0.5,0.102l0.5-0.102l0.6,0.4l0.4,0.8     l0.8,1.9l0.5,0.8l1.1,1.2l1.2,0.8l1.4,0.5l5.1,0.3l6.6,1.3l10.5,0.2l3.2,0.6l3.5,1.2l7.2,3.8l1.898,0.4l1.4-0.3l1.4-0.5l3.1-0.8     l0.9-0.5l1-0.102l2.8,0.7l2.6,0.3l1.302,0.4l3.398,2.7l4,1.3l12.9,6l2.6,0.7l5.4,0.398l2.5,0.602l1.6,1l3.5,1.198l1.4,1.102     l0.199,1.8l-1,2.3l-1.5,2.2l-0.899,2.1l-0.4,4l0.7,4l1.6,3.602l2.7,2.898l3.3,1.7l3.2,0.601l8.3-0.301l0.4,0.301l0.9,1.101     l0.5,0.899l0.698,1.801l0.5,0.898l6.7,5.9" />
			<path
   id="_x31_0m-admin-0-boundary-lines-land.215"
   fill="none"
   stroke="#646464"
   stroke-width="3"
   d="M1782.1,568.9l-2-3     l-0.9-0.7h-0.898l-1.4,0.6l-0.7,0.102l-0.698-0.302l-1.4-0.898l-0.6-0.2l-0.602-0.5l-1.8-2.2l-0.9-0.5l-1.3,0.2l-3,1.4l-1.4,0.3     l-1.6-0.3l-3-1.302l-9.5-2.3l-5.3-0.6l-2.602-0.7l-2.8,1.2l-9.8,0.8l-1.8,0.5l-2.302,1.7l-1.3,0.398l-0.6-0.198l-1.4-0.9     l-0.8-0.2h-2.5l-5.7-0.7l-1.7,0.102l-1.698,0.398l-3.302,1.602l-1.6,0.5l-3.6,0.6l-3.302,0.101l-3-0.699l-2.698-1.9l-1.302-1.1     l-1.3-0.9l-1.6-0.5l-2.2-0.1l-3.9,0.5l-1.5-0.102l-2.1-1.1l-2.5-1.8l-1.3-0.602l-2.602-0.3l-0.198-0.3l-0.102-0.4l-1.699-1.8     l-0.899-0.5l-1.9-0.398l-0.898-0.4l-2.4-1.4l-1.2-0.398l-3.199-0.301l-2.199-1.199l-3-0.602l-5.102-3.398l-1.8-0.5l-5.899,0.3     l-1,0.399l-1.601-1.199l-1.8,0.3l-3.3,1.5l-2.9-0.3l-1.7,0.398l-0.8,1.602l-0.9,0.898l-2.198-0.199l-4.4-1.101l-1.8,0.4l-3.2,1.8     l-1.9,1h-1.3l-0.6-0.1l-0.602-0.4l-1.6,0.5l-2.5-0.2l-4.8-1.1l-2.301,0.3l-1.699,1.2l-1.4,1.2l-1.6,0.6l-10.602,0.6l-0.8,0.4     l-1.899,2.5l0.101,0.4l-1.4,0.8l-1.6,1.8l-2.101,2.7l0.699,6.6l-0.398,1.101l-0.9,0.899l-2,3.8l-1.6,1.2l-3.802-0.5l-2,0.101     l-0.898,1.301l-0.4,1.8l-1.3,1l-1.8,0.5l-1.9,0.3l-3.8,1.2l-6.4,3.6l-3.1,1h-2.301l-1.699-0.199l-1.602,0.301l-1.898,1.6     l-1.4,0.4l-5.5-1.4l-7.3,0.5l-3.3,0.9l-3.2,1.8l-1.4,1.2l-3.1,3.699l-0.9,0.5l-2.198,0.301l-0.9,0.199l-0.8,0.601l-2.802,3.5     l-0.398,0.899l-0.2,1.199l0.2,1.2l0.199,0.7v0.7l-0.601,1.3l-0.8,0.7l-0.9,0.398l-0.898,0.2l-0.7,0.3l-0.4,0.602l-0.5,1.398     l-0.3,0.602l-1.4,0.6l-2,0.601l-1.6,0.699l-0.2,1.102l0.8,2l-0.398,2.1l-1.102,1.9l-1.3,1.398l-1.2,0.801l-1.698,0.899     l-1.802,0.7l-1.698,0.2l-1,1v2.1l0.698,4.1l-1.398,2.602l-3,2.1l-3.7,1.601l-3.3,0.801l0.5,1.799l-1.4,0.5l-1.8-0.1l-1-0.199     l-0.2,0.699l0.2,0.801l0.4,0.6l0.198,0.5l0.2,0.3l0.4,0.399l0.1,0.302l-0.399,0.198l-0.101,0.101l-0.7,0.602h-0.1l-1.3,3.699     l-0.5,0.801l-1.3,0.699l-1.102-0.601l-2.398-2.6l-3.5,2.799l-1.102,0.4l-1.2-0.4l-1.198-0.6h-1l-0.802,2.6l-1.6,1.802l-0.4,1.5     l-0.1,0.5l-0.2,0.6l-0.3,0.4l-0.3,0.1l-0.2,0.301l0.1,0.6l0.302,0.8l0.1,0.602l-0.5,2.101l-1.3,1.698l-1.7,1.201l-1.9,0.6     l-3.698,0.101l-1.102,0.5l-0.898,0.899l-0.7,1.101l-0.8,0.6l-1.302-0.699l0.7-1.399l-0.7-0.201l-1.3,0.5l-1.1,0.5l-0.2,0.602     l-0.9,1.101l-0.898,0.5l-1-3l-1.2,1.1l-2.1,3.301l-1.4,1.398l-1.6,1.102l-3.302,1.699l-3.3,1l-1,1.101l1.3,1.801l-0.898,0.399     h-0.801l-0.699-0.301l-0.602-0.801l-0.3,0.602l-0.6,0.8l-0.4,0.6l-0.7-0.898l-1-0.301l-0.898,0.101l-0.4,0.801l0.4,1.1     l0.699,0.699l0.5,0.602l-0.399,1.101l-1.101-0.701l-0.899,0.102l-0.9,0.699l-0.698,1.199h0.6l-1.6,1.201l-0.5,0.5l-0.302,0.899     l-0.6-0.399l-0.601-0.302l0.199,1.9l0.5,1.699l0.102,1.301l-1.4,1h-1.5l-0.7-1.1l-0.5-1.101l-0.898-0.399l-0.802,0.698l-1.6,3.9     l-1.7,3l-0.398,1.801l0.398,1.601l-2.5,4.6l0.602,1.9l-0.4,2.6l-6.1,25.199l-0.2,4.201l-1.7,8.299l-0.899,1.701l-1.399,1.198     l-1.9,1.101l-7.698,2.399l-1.9,1.101l-0.7,1.399l-5.399,5.5l-5.699,3.601l-2.4,2l-2.2,2.801l-2.6,6.801l-0.6,1.101l-5.7,5.799     l-2-0.299l-1.602-0.101l-1.698-0.399l-1.602-0.201l-4.1,0.602l-23.3,7.199l-2.9,2.1l-1.3,0.701l-4.5-0.201l-2.9,1l-0.7,0.101     l-0.5,0.399l-0.1,2.4l0.9,6.9l-0.102,3.799l-0.898,3.102l-2.5,5.799l-0.2,3.5l-2.7,4.601l-1.898,6.301l-7.7,16.9l-2.8,12.399     l-4.802,11.299l-1.898,5.701l-11.302,8.699l-6.3,3.1l-18.398,1.802l-3.602-0.601l-4-1.201l-3.398-0.6l-3.4,0.5l-4,1.9l-5.2,3.899     l-1.8,0.699l-5.2,1.4l-2.699,0.299l-2.399-0.6l-2.9-0.699l-6.398,0.699l-3.102-0.601l-4.7-3.199l-10.5-3.801l-1.698,0.199     l-1.802,0.801l-2.398,0.601l-4.4-0.699l-3.699-2.701l-6.101-7.1l-3.899-2.199h-4.601l-9.1,2.5l-1.9,0.199l-0.1-0.4l0.398-0.799     v-0.801l-1-0.699l-0.898-0.601l-1-0.2l-4.5,1.1l-1.7-1l-1.3-1.898l-4-2.801l-3.302-4.301l-0.8-0.5l-1.8-0.5l-0.8-0.5     l-0.602-0.898l-0.898-2l-0.8-0.701l-4.9-1.5l-1.1-1.1l-0.7-0.9l-9.3-7.198l-2.2-1.302l-2.5-1.198l-0.9-0.601l-1.2-1.2l-1.3-2     l-0.8-0.8l-1.3-0.399l-1.102,0.198l-2.898,1.101l-1.5,0.102l-1.4-0.301l-4-1.5l-4.8-0.9l-4.4,0.302l-4.1,1.198l-6.602,3.101     l-0.898,0.701l-1,0.6l-0.602-0.5l-0.398-1l-0.602-0.801l-2.1-0.299l-2,1.1l-3.5,3.4l-0.4,0.899l-0.198,0.799l-0.4,0.701l-1,0.699     l-1.2,0.5l-0.898,0.6l-0.802,0.802l-0.698,1.198l-1.4,3.601l-1,1.201l-2.2,0.799l-0.6,1l-1.7,5.899l-0.7,1.4l-0.3,0.801v0.799     l0.5,0.9l0.8,1l0.4,1l-0.8,1l-1.2,0.9l-0.1,0.698l0.398,0.802l0.102,1.1l-0.2,1.301l-0.2,1l-0.5,0.898l-3.899,4.602l-1.199,1.898     l-0.5,2.102v1.299l0.398,0.302l0.5,0.198l0.602,0.9l0.5,1.4l0.199,0.5l-1,1.6l-1.301,1.5l-1.8,1.5l-0.9,1.6l1.102,1.701     l0.5,1.199v2.1l-0.3,2.201l-0.4,1.601l-0.8,1.198l-0.802,0.601l-2.5,0.899l-1,0.802l0.102,0.799l0.3,1l-0.1,1.102l-3.602,5.5     l-1.1,1l-1.7,1.199l-1,1.301l-1.5,3.299l-1.6,2.5l-1.5,0.601l-4-0.9l-2.801,0.5l-1.899,1.603l-3,4.299l-4.601,4.301l-2.101,1.1     l-1.399,0.4l-4,0.699l-0.801,0.6l-0.898,1.9l-3.5,3.5l-1.7,3.399l-2.8,7.601l-3.4,5l-4.4,4.301l-5.198,3.1l-5.5,1.302h-8.5     l-2.802,0.5l-2.398,0.799l-1,1l-0.102,1.5l0.802,4.301l0.1,1.799l-0.4,1.701l-1,1.699l-1.6,1.5l-5,3.301l-1.9,0.799l-1.898-0.1     l-5.2-1.299l-7.5-0.201l-4.3-1.9l-2-0.397l-4.102,0.198l-7.3,1.9l-1.3,0.1l-2.4-0.301h-1.3l-7.6,2.103l-2.8,0.1l-11.602-2.5     l-3.5-2.201l-3.7-1.5l-4.898,0.603l-2.3,1.198l-4.102,2.802l-5.7,2.5l-1.8,1.299l-0.3,0.301l-0.4-0.9l-0.898-3.1l-0.9-1l-1.3-0.9     l-0.5-0.5l-0.6-0.698l-1.2-2.603l-0.9-3.397l-0.398-3.603l-0.102-2.799l1.9-6.4l0.2-2.198l-0.4-1.4l-1.4-2l-0.6-1.1l-0.3-2.5     l0.3-2.701l1.1-5.1l0.4-1.101l2.6-1.899l1.2-1.5l2.602-4.802l5.1-6.198l2-3.4l1.6-3.6l3.801-5.302l0.399-1.397l-3.3-5.701     l-0.3-1.799l0.2-6.802l-0.802-8.301l-2.398-5.6v-0.4l-1-1.1h-0.5l-0.9,0.399l-1.1,0.4v-0.801l0.898-1.9l-1.8-6.299l-0.898-1.701     l-0.9-0.699l-2.2-1.1l-0.7-1v-0.9l0.7-2.1v-1l-0.7-0.6l-1-0.201l-1-0.299l-0.199-1l0.399-0.701l2-1.1l0.5-1l-0.7-2.5l-3.898-3.4     l0.1-2.699l0.601-1.5l2.601-1.6l-1.101-1l-0.801,0.1l-0.8,0.4l-0.8,0.397l-0.9-0.397v-1l0.4-1.201l0.1-0.799l-1.3,0.199l-0.3-1.9     l-0.5-0.799l-2.601-1.201l-1.399-0.9l-0.601-1.1l-0.601-2.9l-0.3-0.699l-1-1.301l-0.3-0.6V844.7l0.398-0.5l0.302-0.603     l-0.2-0.897l-0.602-0.5l-1.6-0.801l-0.5-0.601l-0.2-0.6l-0.2-2.5l-1.6-0.603l-1.7-1l-0.8-1.299l0.8-1.6l0.102-1.4l-0.9-2     l-2.4-3.701l-2.8-5.897l-0.899-1.201l-11.399-9.199l-6.7-4l-0.899-0.301l-1.801-0.1l-0.8-0.199l-1-0.701l-2.3-2.6l-4.601-3.601     l-1.601-2.6l-1.6-1.102l-0.602-0.699l-0.398-1.5" />
			<path
   id="_x31_0m-admin-0-boundary-lines-land.216"
   fill="none"
   stroke="#646464"
   stroke-width="3"
   d="M1703.698-72.5l-3.5,1.5     l-2.5,0.1l-4.198-1.9l-2.2-0.4l-0.8,0.4l-1.302,1.1l-0.698,0.5l-1.4,0.4l-1-0.4l-2.3-1.6l-3.5-0.8l-3.5,0.5l-3.5,1l-3.4,0.6     l-3.8-0.5l-7.602-2.1l-3.898-0.4l-2,0.5l-3.602,1.7l-3.8,0.6l-5,1.8l-2.2,0.3l-1.8-0.3l-1.7-0.4l-1.8-0.3l-2.1,0.6l-3.302,2.9     l-1.6,1l-7.5,0.7l-1.4,0.3l-19.398,9.4l-3.102,3.4l-0.8,0.5l-1.7,0.5l-1.698,1.1l-1.5,1.3l-0.802,1l-1.898,3.7l-1.102,1.2     l-2.1,0.4h-4l-1.9,0.4l-1.698,0.8l-2.9,3l-1.899,2.5l-0.301,0.7l-1.199,1.9l-0.301,1.1l0.2,0.9l0.4,0.6l0.398,0.5l0.2,0.5     l-0.4,3.3l-1.198,3.9l-0.4,3.8l1.4,2.7l-2,5.1l-0.4,2l0.4,1.7l1.398,3.9v2.2l-2.1,3.6l-0.3,0.8l-0.602,3.4l-1.199,1.5l-3.5,2.7     l-0.699,1.6l-1.7,1.8l-0.8,0.7l-1.2,0.2h-2.5l-4.2,0.8L1517.8,29.1l-5.9,4l-8.7,7.5l-21.5,9.6l-4.5,2.9l-3.5,3.9l-12,18.7     l-1.398,3.4l-1.801,7.5l-2.399,4.8l-4.601,4.9l-9,8.5l-23.301,25.1l-0.899,1.4l-0.101,1l0.101,2.3l0.199,2.2l-3,3.8l-3.199,3.3     l-2.601,2.6l-2.399,1.4l-1.301,0.3l-4.199,0.2l-0.899,0.4l-3.2,2.2l-2.1-0.7l-8.301,4l-2.101,0.2l-1.399,0.4l-1.199,0.7l-2.5,2.4     l-1,0.4l-1.301-0.3l-5-1.7l-1.399-0.7l-1.2-1.1l-1.399-1.6l-1.101-0.9l-1.5-0.7l-2.3-0.4l-3.7-1.2l-6.7-3.8l-4.1-0.8l-3.2,0.5     l-0.698-0.1l-0.5-0.6l-0.7-0.5l-0.9-0.4l-4-0.5l-0.8-0.3l-0.5-0.6l-0.5-0.9l-0.6-0.8l-0.802-0.3l-0.8,0.4l-3.1,2.5l-0.801,0.4     l-2,0.4l-1.5,0.9l-1.5,0.4l-0.601,0.2l-0.1,0.4l0.198,1.2l-0.1,0.4l-1.2,0.3l-1.6,0.1l-1.4,0.3l-0.6,1.1l-0.6-0.6l-4.802,2.6     l-1,0.1l-3.8-0.1l-5.3-2.6l-0.9-1.1l-0.6-1.6l0.1-1.3l1.4-0.5l-1.2-1.7l-4-1.7l-0.899-1.5l-0.699-1l-1.801-1.2l-1.899-1     l-3.301-0.9l-1.101-0.9l-1.1-0.8l-2.2,0.2l-4.6,2.1l-5.9,1.2l-0.5,0.2l-0.8,0.9l-0.5,0.2l-0.602-0.1l-0.8-0.5l-0.399-0.1h-6.699     l-0.9-0.2l-2.899-1.1l-2.699,0.2l-0.9-0.2l-1.7-0.8l-2.698-2.2l-1.602-0.8l-0.698-0.6" />
			<path
   id="_x31_0m-admin-0-boundary-lines-land.311"
   fill="none"
   stroke="#646464"
   stroke-width="3"
   d="M1087.6,117.7l-0.5-1.2     l-0.1-1.2l0.6-1.4l-2-1.7l-1.6-2.1l-1.802-1.3l-1.3-0.7l-1.3-0.4l-2.9-0.2l-1.5,0.2l-1.399,0.4l-1.601,0.2l-1.5-0.5l-1.1-1.2     v-1.3l0.198-1.5l-0.3-1.5l-0.898-1l-3.9-1.6l-2.1-1.8l-2.102-2.6l-1.7-2.8L1058.1,90l-0.5-1.1l-3.7-4.1l-1.2-0.8l-4.198-1.2     l-5.302-2.3l-2.398-1.7l-3.5-3.2l-2.7-1.6l-1.2-1l-0.8-1.4l-1-4.4l-1.2-2.5l-1.8-2.5l-3.9-4.5l-1.199-0.9l-5.301-2.2h-1.1     l-0.5-0.4l-0.4-0.8v-1.7l-0.199-0.8l-1.101-1.2l-2.8-0.9l-1.2-0.8l-0.8-1.2l-0.9-2.7l-6.398-10.5l-0.7-0.8l-0.8-0.5l-1.4-0.3     l-0.5-0.2l-0.5-0.6l-0.6-1.1l-1.301-2l-0.601-1.2l-0.899-0.9l-2.301-0.5l-0.398-0.2l-0.602-0.7l-0.398-0.3l-0.301,0.2l-0.399,0.3     l-0.8,0.2l-1.301,0.5l-0.699,0.1l-1.2-0.4l-7.601-6.4l-0.5-1.3l-0.301-1.6l-0.398-1.4l-0.9-0.6l-1.7-0.2l-0.3-0.7l0.2-1.1v-1.2     l-0.4-1.4l-1.6-2.6l-0.4-1.2l0.102-1.6l0.5-1.8l0.699-1.7l0.801-1.2l0.199-1.2l-1.5-0.7L971.1-3.4l-0.102-0.5L970.9-6l-0.1-0.9     l-0.302-0.5l-1.1-0.9l-0.4-0.6l-0.3-1.4l-0.2-1.2l-0.3-1.2l-1-1.3l0.8,0.1l2.2-0.1l-3.1-5.2l-2.3-3l-0.2-2.1v-1.5v-5.7v-6.1     l-0.1-0.2v-4.3v-9.7l0.1-9.7v-9.7v-9.6V-85v-2.9v-2v-3.8V-108v-14.3v-14.3v-14.3l-0.1-14.2v-14.3v-14.3V-208v-14.3v-14.3v-14.3     v-14.3v-14.3v-14.3v-14.3l-0.102-14.3h11h10.9h10.898h10.9h10.9h10.898h11h10.9h10.898h10.9h10.9h10.898h11h10.9h10.899h10.899     h2.801l-1-3.5l-1.5-3l-1.899-2.7l-4.801-5.2l-1.801-2.7l-0.8-3l0.6-3.7l1.7-4.3l1.602-7l1.6-6.6l1.1-2.8l4-6.1l2.9-4.6l0.8-1.7     l0.2-1.6l-0.9-4.2l-0.3-5.8l-0.899-2.4l-2.301-2.5l-1.898-2.9l-0.4-4.3l0.6-13.3l0.5-12.2l1.9-4.6l0.1-1l-0.398-2.3l-0.4-7.1     l-0.7-2.3l-0.898-1.8l-0.7-1.8v-2.4l0.5-1.9l1.5-3.8l2.5-4l0.3-1.1l0.101-1.6l-0.301-2.2l0.102-1.2l0.198-1.1l0.9-1.4l2.8-2.3     l0.801-1.3v-1.1l-3.899-9.2l-0.5-2.4l0.3-13.5l-1.699-0.3l-0.5-1.3l0.399-3.7l-0.1-5.2l0.398-1.7l0.5-1.8l-0.3-1.4l-1.7-2.8     l-0.6-1.6l-0.601-4.7" />
			<path
   id="_x31_0m-admin-0-boundary-lines-land.312"
   fill="none"
   stroke="#646464"
   stroke-width="3"
   d="M1087.6,117.7l-7.4,1.5     l-17.898,3.7l-17.9,3.7l-18,3.6l-17.9,3.7l-22,4.4l-22.1,4.4l-22,4.3l-22.1,4.4l-6.302,1.3l-1.6,0.5l-0.5-0.2l-1.5-2l-2.6-1.3     l-5-1.8l-4-2.3l-1.4-0.4l-3.6,0.2l-1.301-0.2l-1.5,0.3l-1.5,0.7l-1.5,0.4l-1.399-0.7l-8.2,2.3l-8.1,2.3l-1.2,2.5l-2.9,0.6l-2.6,1     l-2.2,0.2l-1.9-1.8l-2.698-1.4l-1.5-0.4l-0.602,0.8l-0.7,0.4l-1.398-0.3l-1.5-0.6l-0.602-0.8l-1.398-0.8l-3.2-0.3l-3.5,0.2     l-2.2,0.6l-1.1-0.6l-2.5-1.9l-3.102-1.6l-0.8-0.7l-1.7-2l-2-1.8l-2.198-1l-2.302,0.6l-3.398-3l-1-0.4l-3,0.6l-1.2,0.1L815,138     l-3.1,2.7l-2-0.9l-2.4-0.1l-2.1,0.5l-1.3,1.2l-0.602-0.7l-1.3,0.5l-1.1,0.2h-2.4l-5.2,0.5l-0.8-0.1l-3.1-1.1l-3.3-2h-13.9     l-0.5,0.4l-1,1.8l-0.5,0.5l-1.4-0.1l-2-0.7l-1.8-0.9l-0.8-0.7l-0.8-1.7l-1.8-0.4l-2,0.2l-5,1.1l-15.102,0.2l-13.898-4.3l-1.4-0.9     l-4,0.3l-2.6-0.6h-1l-1.9,0.4l-3,1.2l-7.4,0.4l-11.5-2.2l-7.8-4l-3.398-0.9l-1.2-1l-1.8-2.4l-5-5.5l-0.802-0.6l-1.698-0.9     l-0.802-0.8l-0.5-0.9L669.6,114l-0.3-0.7l-4.602-3.9l-1.2-0.6l-0.198-1.1l-3.102-6.1l-2.1-0.6l-0.2-0.2l-0.2-1l-1.398-3.6     l-0.602-0.5l-0.5-0.3l-0.398-0.9l-0.102-0.6l-0.7-0.1H649.3c-120.167,0.107-240.334-0.1-360.5-0.1h-6.1h-1v0.5l-0.9,1.9l-1.9,0.3     L275,95.7L274.4,96L273,96.8l-0.9,0.3H271l-1.4-0.5l-1.898-0.2l-1.602-0.5l-1-0.2l-0.8,0.3l-1.4,0.9l-1.1,0.2l-2-0.4l-1.3-1.1     l-4-5.6l-1.102-1l-8.3-4.8l-8.5-4.8l-7.7-6.6l-7.398-4.3l0.8-2.7l-0.8-1.6l-1.2-1.3l-1.2-3.7l-1.3-1.3l-1.8-0.8l-2.102-0.3     l-1.6-0.5l-3.1-2.2l-1.602-0.6l-3.7,1h-0.5l-0.6-0.4l-1.4,0.3l-2.198,1.1v-0.7l-0.9,0.4l-1.1-0.1l-2-0.3l-0.9-0.5l-0.6-0.9     l-0.602-0.5l-1.2,0.6l-1.6-1.2l-1.9,0.1l-2,0.7l-9.5,1.7l-4.6,2.8l-2.7,0.7l-1.7,0.8l-2.1,0.6l-0.5,1l-0.1,1l-0.4,0.9l-0.7,0.5     l-1.6,0.5l-0.7,0.3l-0.8,0.8l-0.7,1.4l-0.6,0.8l-3,0.9l-3.9,2l-3.1,2.7l-1.602,0.9l-2.2,0.3l-2.198,0.8l-3.9,3.5l-2.1,1.2     l-1.2,0.1l-3.102-0.8l-5.1-0.4l-1.7-0.6l-2.1-1.3l-0.9,0.1l-1.2,1l-1.198,0.5l-5.7-0.2l-6.3,0.6l-0.302-0.3l-0.3-0.9l-0.398-0.9     l-0.802-0.4l-1-0.3l-1-0.5l-0.8-0.7l-0.5-0.5L103.7,73l-0.102-0.8l-0.2-0.6l-0.6-0.5l-0.8-0.3l-0.4,0.3l-0.5,0.4l-1,0.2l-3-0.9     L96.2,70.2L95.6,70.1l-0.5,0.2l-0.7,0.2l-4,0.6l-4.1,1.2L82.8,74l-4.2,3.3L75,79.1L73.4,80.2L72.9,81L72.7,81.6L72.2,82     L70.9,82.1L70,81.9l-1.5-0.8l-1.2-0.2" />
			<path
   id="_x31_0m-admin-0-boundary-lines-land.313"
   fill="none"
   stroke="#646464"
   stroke-width="3"
   d="M1252.5,132.3l-0.5-1.2     l-1-1.1l-1.2-0.7l-1.2-0.4h-1.5l-0.6-0.3l-1.2-1.6l-0.4-0.3l-1-0.6l-0.398-0.4l-0.102-0.5l0.102-1.2l-0.302-0.6l-1.3-1.4h-0.6     l-0.8,1.1l-0.2-0.6l-0.5-0.7l-0.602-0.5l-0.8-0.2l-0.2-0.4l-0.698-2.8l-0.302-0.2l-1.6-1.5l-0.2-0.3h-1.1l-0.602-0.2l-0.5-0.3     l-0.5-0.8V114l0.602-1.6l-0.3-0.3l-0.9,0.1l-1.7,0.6l-0.8-0.1l-1.4-1.1l-1-1.5l-1.198-0.8l-1.7,0.8l-1.2-1.7l-2.3-1.1l-6-1.3     l-2.9,0.2L1211,106l-0.602-0.5l-0.398-0.4l-0.5-0.2l-7.5-1.3h-3.9l-0.9,0.3l-0.6,0.7l-0.5,0.6l-0.9,0.6l-1.398,1.2l-0.9,0.5h-0.8     l-0.8-0.1l-1.4-0.5l-0.8-0.6l-0.5-0.7l-0.7-0.5l-2.2-0.4l-1.699-0.9l-2.601-0.5l-3.8-1.4l-1.5-0.3l-1.601,0.3l-3.699,1l-0.7,0.4     l-1-0.6l-4.601-0.2l-1.601-0.2l-1.6,0.1l-2.602,0.6l-3.8,0.8l-3.8,0.8l-3.7,0.8l-3.8,0.8l-3.7,0.8l-3.8,0.8l-3.7,0.8l-3.8,0.8     l-3.8,0.8l-3.7,0.8l-3.8,0.8l-3.801,0.8l-3.699,0.8l-3.801,0.8l-3.699,0.8l-3.801,0.8l-2.601,0.5l-1.7,0.1l-3,0.6l-3.6,0.7" />
			<path
   id="_x31_0m-admin-0-boundary-lines-land.316"
   fill="none"
   stroke="#646464"
   stroke-width="3"
   d="M788.9,792.401v1.1     c0.068,114.73,0.2,229.469,0.2,344.199l-0.2,2.801l-2.7,0.699H785.3l-2.9-0.301l-0.9,0.102l-2.3,1.299l-4,3.4l-2.5,0.699     l-4.3,0.2l-2,0.699l-1.7,1.301l-1.5,0.8L754.3,1150l-0.7,0.299l-0.9,0.5l-0.6,0.701l-0.5,0.699l-0.8,1l-0.5,0.698l-0.7,1.802     l-0.602,0.301l-0.8,0.299l-0.5,0.9l-2.6,7.6l-0.9,1.301l-1.5,1.199l-1.8,0.801l-7.1,1.802l-1.301,0.5l-1-0.201l-2.101-1.601     l-1.2,0.101l-1.1,0.899l-1,1.302l-1.6,2.698l-0.302,2l0.602,2.101l3.3,5.399l-0.1,1.101l-1,0.6l-2.9,0.201l-0.5,0.4l-1,1.5     l-0.7,0.698l-5,2.5l-3.6,1.199l-3.4,0.101l-1.5-1.8l-0.399-0.399l-1-0.301l-3.101-0.398l-0.6-0.201l-0.9-1l-2.2-3.299l-1.5-1.4     l-18.3-2.5l-16.899,2.4l-3.199,1.6l-1.9,0.601l-0.4-0.199l-1-0.9l-0.398-0.301l-0.5,0.101l-0.8,0.5l-0.4,0.2l-1.8,0.199     l-0.9,0.301l-0.7,0.4l-1.698,0.699l-2.2-0.302l-3.7-1.299l-1.9-0.201l-7.699,1.101l-3.199,1H629.5l-7.398-2.5l-3.4-1.601     l-5.3-4.299l-3-1.801l-3.2-1.301l-14.6-3l-2.801,0.201l-1,0.399l-1.699,1.101l-0.9,0.399l-1.1,0.101l-2.801-0.801l-1.899-0.8     l-0.4-1.899v-2.301l-0.398-2l-1.4-0.9l-1.5,0.301l-1.6,0.699l-1.801,0.4l-3.699,0.5l-3.801,0.801l-3.301-0.5l-0.199-2.801     l1.101-3.9l0.6-3.799l-1-2.103l-3.199-1.1l-0.699-1.601l-0.5-2.198l-2.4-2.9l-0.7-1.699l0.4-1.399l1.1-1.301l1.5-0.9l1.5-0.4     l1.4-0.897l0.7-2.302l0.199-2.6l-0.101-2l-0.5-1.1l-1.399-1.801l-0.601-0.9l-0.3-1.199l-0.101-1l-0.301-0.9l-0.8-1.198l-0.3-0.9     l-0.101-1.201l-0.399-1.1l-1-0.4l-2.3,0.103l-5.5,1.299l-2.9-0.6l-1.8-2.199l-0.4-4.4l0.2-2.1v-2.201l-0.8-1.6l-2.2-0.699     l-1.7-0.701l-1.1-1.799l-1.101-1.9l-1.199-1.4l-1-0.399h-0.9l-1.7,0.399l-1,0.5l-2.898,2.101l-2.4-0.601l-1,0.302l-1.2,1.198     l-1.1,0.4l-0.9-0.1l-0.8-1.101l-0.7-0.102l-0.6,0.399l-1.5,1.601l-0.3,0.301l-0.602,7.5l-0.699,1l-0.399-0.1l-0.4-0.302h-1.5     l-0.3-0.299l-0.399-0.102l-0.5,0.4l-0.199,0.6l0.199,0.5l1.601,1.801v0.699l-1.3,0.301h-1.9l-0.5,0.4l-0.3,0.899l0.2,0.601     l0.699,1l0.5,1.1l-0.199,1.199l-0.801,0.602l-0.899-0.301l-0.899-0.6l-0.7-0.301l-1.601,0.7l-0.399,1.699l0.399,1.9l0.601,1.5     l1.899,2.698l0.601,1.802l-0.899,0.698l-1.3,0.9l-0.5,1.9l-0.101,2.1l-0.2,1.6l-1,1.601l-1.601,2.1l-1.699,1.4l-1.5-0.199     l-0.399-0.801l-0.2-1.199l-0.399-1.1l-0.801-0.5l-0.899,0.299l-6.601,6.399l-3.399,1l-2.399,1.201l-2.3,1.5l-1.601,0.699" />
			<path
   id="_x31_0m-admin-0-boundary-lines-land.317"
   fill="none"
   stroke="#646464"
   stroke-width="3"
   d="M1252.5,132.3l-5.7-1.2     h-3.5l-3,3l-2.8,1.2l-2.802,0.1l-0.8-1.9l-2.4,1.6l-1.1,0.2l-0.8-1.2l-1.302,0.7l-0.8-0.4l-0.5-0.9l-1-0.6l0.602-1.4l-1,0.2     l-0.4,0.5l-0.3,0.6l-0.602,0.7l-0.6,0.3l-6.5,2.2l-1.7,0.1l-1.5,0.4l-2.1,1.8l-1.8,0.4l-0.5,0.3l-0.602,1.4l-0.699,0.3     l-0.801,0.1l-0.8,0.3l-0.6,0.4l-0.5,0.4l-2.4,3.1l-3,2l-1.3,1.3l-4.4,5.5l-0.3,0.1l-0.3,0.6l-1.302,1.5l-0.198,0.6l-0.9,0.2     l-4.1,0.4l-1.102,0.3l-3-2.9l-0.1-1.4l-0.5-0.6l-0.5-0.3l-0.7-0.6l-1.5-3l-1.1-1l-1.9-0.4l-3-0.2l-1.3,0.5l-1.4,1.5l-2.5,4.5     l-0.898,0.7l-0.802-0.2l-1.5-0.8l-0.898-0.3l-1.9-0.3l-1.7,0.3l-3.1,1.6l-4.2,5.3l-3,2.2l-3.198,0.6l-0.7,0.4l-2.5,2.5l-0.7,0.6     l-2.5,1.1l-1.1,0.8l-0.4,0.5l-0.3,0.6l-0.4-0.3l-0.399-0.2l-0.5-0.2l-0.5,0.1l-3.101,2.3l-0.3,3.2l-1.4,1.4l-2.5,1.8l-1.1,1.1     l-1.6,2.4l-1,1.1l-1.4,0.4l-8.3,9.2l-1.302,0.9l-1.8,0.3l-2.1,2.6l-0.602,0.4l-0.398,0.3l-3.102,1.1h-1.5l-1.198-0.9l-0.7-4     l-1.4-4.1l-0.698-1.3l1.198-2l-0.8-1.9l-2.9-3.3l0.802-1.5l-0.5-0.9l-0.9-0.7l-0.5-1.1l-0.4-1.1l-0.898-0.4l-1.2-0.2l-1.2-0.5     l-0.5-0.8l-1.198-1.6l-1.302-1.1l-1,0.9l-0.698-0.1l-0.802-0.3l-0.5-0.3l-0.1-0.4l0.2-1.6l-0.102-0.6l-0.5-1l-2.699-3.2l-1-2.4     l-1-1.4l-0.199-0.5l-0.102-0.7l0.102-2.2l-0.301-0.3l-0.699-0.1l-0.602-0.2l-0.3-0.7v-1.2l-0.1-0.7l-0.5-0.4l-1.102-0.6     l-3.398-0.2l-6,0.6l-7.602,0.7l-10.398,0.9l-7.7,1.5l-7.4,1.5l-7.398,1.5l-7.4,1.5l-7.398,1.5l-7.4,1.4l-7.4,1.5l-7.398,1.5     l-7.4,1.5l-7.5,1.5l-7.4,1.5l-7.398,1.5l-7.4,1.4l-7.399,1.5l-7.399,1.5l-7.4,1.5l-7.398,1.5l-1.5,0.3l-1.5,0.3l-1.5,0.3     l-1.5,0.3l-1.7,0.1h-1.7l-4.1,0.2l-4.102,0.2l-4.1,0.2l-4.2,0.1l-4.899,0.3l-5,0.2l-4.899,0.2l-5,0.2l-4.3,0.2v2.7     c-0.208,114.335,0.8,228.668,0.8,343l-1.101,3.5h-5c-27.434,0-54.866,0-82.301,0v8.2c0.127,84.3,0.301,168.601,0.301,252.901" />
		</g>
	</g>
</g>
<g
   id="Coastline">
	<g
   id="g103">
		<defs
   id="defs105">
			<rect
   id="SVGID_7_"
   x="0"
   width="1300"
   height="1252.215" />
		</defs>
		<clipPath
   id="SVGID_8_">
			<use
   xlink:href="#SVGID_7_"
   overflow="visible"
   id="use109" />
		</clipPath>
		<g
   id="layercoastline"
   clip-path="url(#SVGID_8_)">
			<path
   id="_x31_0m-coastline.28"
   fill="none"
   stroke="#0978AB"
   stroke-linecap="round"
   d="M71.095,0.318L71.5,17.5l0.8,9l-0.5,2.4     l-0.2,7.5L70.7,39.9L67.9,39.3l0.7,8.2l-0.1,2.8l-1.8,9.8L66.6,72.6L66,76.2L65.9,77.5l0.2,1.2l0.5,0.9l0.7,0.6v0.7l-1,1.3     l-2.9,19.1L63,108.7l0.8,5.1l0.1,2.7L63,118.6l1.3,3.4l0.6,12.8L66.5,140l0.3,8.5l0.5,1.9l2.7,6l0.3,2.1l0.5,1.5l1.1,1.3l2,2.1     l7.9,9.8l0.5,0.6l3.4,9.3l2.1,3l-0.2,1L87.7,188v1l0.1,1.1l1.1,2.9l0.302,1.8l0.8,1.4l5,6.3l0.898,0.6l0.9,0.5l1.5,2.2l0.6,0.5     l0.9,0.4L113,218l14.398,19.6l0.7,2l1.102,6.8l0.8,1.3l3.2,2.5l2.698,3.2l1.802,3l4.198,10.9l1.802,3.3l2.8,3.8l1,2l0.6,4.4     l0.4,1.8l1.2,3l3.898,7.2l0.8,1l2.2,4.7l1,1.4l0.7,2.2l6.5,12.1l3.7,5.1l0.8,2.7l6.9,13.4l3.5,10.4l1.5,2.9l5.698,4.8l2.4,2.6     l2,3.4l3.1,7.9l1.802,7.8l0.5,4l2,8.3l7.698,15.1l2.4,8.5l0.899,7.8l0.899,3.2l1.8,3.302l2.301,1.898l1.301,1.3l1.1,3.5l3.7,5     l7.8,14.302l5.7,7l5.399,9.3l9,12l2.801,6.8l1.3,6.1l7,10.602l0.399,0.898l0.301,1.2v0.602L259.9,508.3l-0.199,0.5l-0.399,0.9v1     l1.7,0.898l7.3,6.801l0.7,1.5l6.6,6.301l13.5,17.8l0.2,0.8l0.1,2.3l1.802,3.102l5.698,6.5l0.602,0.8l2.8,6l1.7,5.6l3.198,6.5     l0.9,4.2l2.1,3.4l1.602,12.5l0.6,16.6L310,616.6l-0.602,2.2l-1,1l-1.2,0.8l-2,3.801l-1.3,1.301l1-2.9l0.2-1.1l-1.9,0.898     l-0.698-1l0.198-1.898l0.5-1.9l-0.3-0.399l-0.5-0.899L302,615.899l0.5-0.801l-0.302-0.398h-0.5l-0.198,0.199v3.899l-0.302,0.9     l-1.1,1.8l-0.4,0.899l-0.198,0.899l0.398,6.201l0.602,3.299l0.898,3.101l1.3,2.7l1.5,2.4l0.9,3.398l1.6,11l0.2,3.7l-0.3,2.101     l-0.5,0.5l-0.5-0.9l0.1-2l-1.1,1.1l-2.2,3.802l-0.7,0.899v0.9l1.102,4.299L307,681l0.5,3.398l-1.2,13.7l0.2,1.601l1.6,4.6     L308,709.6l0.698,1.101L307.5,713l-0.4,0.898l-0.7,0.399l-0.8,0.101l-0.5,0.301L304.4,716l-0.5,2.6l-0.7,1.3l0.7,2.102l0.4,3.199     v3.199l-0.4,1.899l0.602,1.4l0.6,4.399l1.7,3.101l1.898,6.6l4.7,9.101l1.9,4.801l2,3.6l0.398,1.801v3.9l-0.3,0.5l-1.2,1.398     l-0.3,1l0.5,2.399l3,3.5l1.2,2.801l4.399,4.199l2.101,2.9l5,9.5l1.1,3.6l0.2,7.601l1.2,3.7l3,6.199l0.9,3.601l-0.4,3.899     l-1.7,6.801l0.2,1.101l-2.7,7.1l0.102,1.9l0.898,3.5l0.5,4.5l2.102,5.699l0.398,4.301l0.602,2.399l1.898,1.9l0.4,1.898v2.2     l-0.3,1.601l-2.602,4.899l-0.398,1.9v7.5l-0.2,1.299v0.9l0.2,1.1l1.5,2.5l4.5,5.301h0.698l-1.398,3.5l0.398,3.101l4,6.399     l1.4,3.101l0.9,4.1l0.1,4l-1.2,3.101l-0.8,0.399l-0.7-0.299h-0.5L346,924.7l0.3,0.6l1.8,2.601l-0.4,7.2l0.7,7.4l0.8,0.898     l5.2,2.102l3.3,2.199l2.9,2.899l2.1,3.5l1.102,5.699l1.8,5.801l0.6,1.3l-0.1,1l-1.7,4.899L364,974.7H363.4V971.1l-0.2-0.899     H362.5l-0.9,0.301l-0.9,0.199l-1.3,0.5l-0.7,1.399l-0.198,1.9l0.1,2.199l0.8,1.6l1.2,1.9l1,1.801l-0.4,2.6l0.4,1.601l2.8,5.699     l0.6,1.801l0.3,2.1h0.3l0.7,0.9l0.6,1l0.102,0.399l0.8,0.3l1.6,0.102l0.6,0.199l1.398,1.699l0.5,1.899l-0.1,3.9l0.199,2.199     l0.5,1.801l1.801,3.5l-0.602,1.399l1.2,6.101l-0.6,3.899l0.199,1.199L375,1027l0.6,0.699l0.5,1l1.2,7.5l0.5,1l3.6,4.5     l2.602,4.899l0.8,0.9l1.398,0.6l1.102,1.5l1.398,3.101l8.4,13l0.5,1.198l0.2,0.701v4.9l0.398,2.299l1.102,1.701l8.8,8.398     l2.4,3.2l1.1,3l-0.1,0.9l-0.602,1.897L411,1095l0.5,0.699l2.8,2.899l2.7,4.199l1.198,1.301l6.302,4.799l4.5,5.5l2.398,2.302     l11.602,8.1l5.6,6.301l5.3,6.9l0.7,0.6l1.6,0.601l9.4,9.1l1.3,1.9l2.8,3l5.301,4.199l1,0.602l2.399,0.398l1.101-1l0.801-1.5     l1.699-1.101l0.101,0.9l-0.2,1.5l-0.5,1.399l-0.898,0.601l0.1,0.6l2.3,2.201l1.4,1.1l1.898,4l0.5,0.199l0.802,0.101l0.8,0.2     l0.3,0.5l0.2,0.699l0.7,1.601l0.398,0.6l-0.3,2l0.5,3.4L491,1179.7l0.899,2.1l5.9,4.801l4,5.299l0.699,1.302l1.301,3.6l0.8,1.199     l5.6,4.701l1.4,2.198l-0.4,1.5l0.3,2.201l0.7,2.199l0.8,1.5l0.302,0.9v2.199l0.3,0.801l1,0.899l0.5,0.8l1.8,5.801l1.6,1.799     l0.302,0.4l0.3,1l1.7,1.7l0.398,0.601l3.3,9.399l0.602,1.101l2.6,6.799l0.4,3.5l0.6,2.102" />
			<path
   id="_x31_0m-coastline.1274"
   fill="#E0E0E0"
   stroke="#0978AB"
   stroke-linecap="round"
   d="M63.7,20.7v-3.9l-0.302-2     L62.5,13.2L60.9,12.7l-1.3,0.7l-1,1.3L58.2,16.1l0.198,2L64,33.9l2.6,3.4l0.5,0.4L67.7,38h0.8l-3.4-7.6l-0.8-2.9L63.7,20.7" />
		</g>
	</g>
</g>
</svg>